<svg width="76" height="75" viewBox="0 0 76 75" fill="none" xmlns="http://www.w3.org/2000/svg">
<g id="furnitures 1">
<g id="Outline">
<path id="Vector" d="M11.0469 48.0469C10.3516 48.0469 9.67184 48.2531 9.0937 48.6394C8.51556 49.0257 8.06495 49.5747 7.79886 50.2171C7.53277 50.8595 7.46315 51.5664 7.5988 52.2484C7.73445 52.9303 8.06929 53.5568 8.56095 54.0484C9.05262 54.5401 9.67905 54.8749 10.361 55.0106C11.043 55.1462 11.7499 55.0766 12.3922 54.8105C13.0346 54.5444 13.5837 54.0938 13.97 53.5157C14.3563 52.9375 14.5625 52.2578 14.5625 51.5625C14.5615 50.6304 14.1907 49.7368 13.5316 49.0777C12.8726 48.4187 11.979 48.0479 11.0469 48.0469ZM11.0469 52.7344C10.8151 52.7344 10.5885 52.6656 10.3958 52.5369C10.2031 52.4081 10.0529 52.2251 9.96421 52.011C9.87551 51.7968 9.8523 51.5612 9.89752 51.3339C9.94274 51.1066 10.0543 50.8977 10.2182 50.7339C10.3821 50.57 10.5909 50.4584 10.8183 50.4131C11.0456 50.3679 11.2812 50.3911 11.4953 50.4798C11.7095 50.5685 11.8925 50.7187 12.0213 50.9114C12.15 51.1042 12.2188 51.3307 12.2188 51.5625C12.2184 51.8732 12.0948 52.1711 11.8751 52.3908C11.6554 52.6105 11.3576 52.734 11.0469 52.7344Z" fill="#8A8987"/>
<path id="Vector_2" d="M55.5781 48.0469C54.8828 48.0469 54.2031 48.2531 53.625 48.6394C53.0468 49.0257 52.5962 49.5747 52.3301 50.2171C52.064 50.8595 51.9944 51.5664 52.1301 52.2484C52.2657 52.9303 52.6005 53.5568 53.0922 54.0484C53.5839 54.5401 54.2103 54.8749 54.8923 55.0106C55.5742 55.1462 56.2811 55.0766 56.9235 54.8105C57.5659 54.5444 58.115 54.0938 58.5013 53.5157C58.8876 52.9375 59.0938 52.2578 59.0938 51.5625C59.0927 50.6304 58.722 49.7368 58.0629 49.0777C57.4038 48.4187 56.5102 48.0479 55.5781 48.0469ZM55.5781 52.7344C55.3464 52.7344 55.1198 52.6656 54.9271 52.5369C54.7344 52.4081 54.5842 52.2251 54.4955 52.011C54.4068 51.7968 54.3836 51.5612 54.4288 51.3339C54.474 51.1066 54.5856 50.8977 54.7495 50.7339C54.9134 50.57 55.1222 50.4584 55.3495 50.4131C55.5768 50.3679 55.8125 50.3911 56.0266 50.4798C56.2407 50.5685 56.4237 50.7187 56.5525 50.9114C56.6813 51.1042 56.75 51.3307 56.75 51.5625C56.7497 51.8732 56.6261 52.1711 56.4064 52.3908C56.1867 52.6105 55.8888 52.734 55.5781 52.7344Z" fill="#8A8987"/>
<path id="Vector_3" d="M63.7812 51.5625C63.7812 50.4735 63.5644 49.3954 63.1434 48.3911C62.7223 47.3867 62.1056 46.4763 61.329 45.7128C60.5524 44.9494 59.6316 44.3482 58.6202 43.9443C57.6089 43.5405 56.5272 43.342 55.4384 43.3606C50.9923 43.4348 47.375 47.1661 47.375 51.6783V55.615C44.1648 54.7412 39.4828 53.9063 33.3125 53.9063C27.1421 53.9063 22.4602 54.7412 19.25 55.615V51.5625C19.25 50.4585 19.0271 49.3658 18.5947 48.3499C18.1623 47.334 17.5293 46.4159 16.7336 45.6505C15.9379 44.8851 14.9959 44.2882 13.964 43.8956C12.9321 43.503 11.8316 43.3227 10.7284 43.3656C8.66673 43.4524 6.71289 44.3104 5.25379 45.7695C3.79469 47.2286 2.93674 49.1824 2.84986 51.2441C2.77165 53.2701 3.4461 55.2533 4.74324 56.8116C6.04038 58.3699 7.86839 59.3929 9.87496 59.6835V64.4531C9.87636 65.6959 10.3707 66.8874 11.2494 67.7662C12.1282 68.6449 13.3197 69.1392 14.5625 69.1406V72.6563C14.5625 72.9671 14.6859 73.2651 14.9057 73.4849C15.1255 73.7047 15.4235 73.8281 15.7343 73.8281H19.25C19.4676 73.8281 19.6809 73.7675 19.866 73.6531C20.0511 73.5387 20.2007 73.375 20.2981 73.1804L22.3179 69.1406H44.307L46.3269 73.1804C46.4242 73.375 46.5738 73.5387 46.7589 73.6531C46.944 73.7675 47.1574 73.8281 47.375 73.8281H50.8906C51.2014 73.8281 51.4995 73.7047 51.7192 73.4849C51.939 73.2651 52.0625 72.9671 52.0625 72.6563V69.1406C53.3052 69.1392 54.4967 68.6449 55.3755 67.7662C56.2543 66.8874 56.7486 65.6959 56.75 64.4531V59.6821C58.7013 59.3979 60.4853 58.4212 61.7762 56.9305C63.0671 55.4398 63.7788 53.5345 63.7812 51.5625ZM18.5257 71.4844H16.9062V69.1406H19.6976L18.5257 71.4844ZM49.7187 71.4844H48.0992L46.9273 69.1406H49.7187V71.4844ZM55.5781 57.4219C55.2673 57.4219 54.9692 57.5454 54.7495 57.7651C54.5297 57.9849 54.4062 58.283 54.4062 58.5938V64.4531C54.4055 65.0745 54.1583 65.6702 53.7189 66.1096C53.2796 66.549 52.6838 66.7962 52.0625 66.7969H14.5625C13.9411 66.7962 13.3454 66.549 12.906 66.1096C12.4666 65.6702 12.2195 65.0745 12.2187 64.4531V58.5938C12.2187 58.283 12.0952 57.9849 11.8755 57.7651C11.6557 57.5454 11.3576 57.4219 11.0468 57.4219C10.2581 57.4219 9.47739 57.2627 8.75163 56.9537C8.02588 56.6447 7.36998 56.1924 6.82325 55.6238C6.27651 55.0553 5.85021 54.3822 5.56988 53.6449C5.28955 52.9076 5.16098 52.1213 5.19186 51.3331C5.25395 49.8612 5.86652 48.4663 6.90825 47.4245C7.94999 46.3828 9.34493 45.7702 10.8169 45.7081C11.605 45.6772 12.3914 45.8057 13.1287 46.0859C13.866 46.3662 14.5391 46.7924 15.1078 47.3391C15.6764 47.8858 16.1288 48.5416 16.4378 49.2674C16.7468 49.9931 16.9062 50.7737 16.9062 51.5625V56.3379C15.0589 56.9824 14.0881 57.5159 13.988 57.5723L15.1345 59.6165C15.195 59.5828 21.329 56.25 33.3125 56.25C45.2959 56.25 51.43 59.5828 51.488 59.6152L52.637 57.5723C52.5368 57.5159 51.566 56.9819 49.7187 56.3379V51.6783C49.7187 48.4371 52.3021 45.7571 55.4775 45.704C56.2511 45.6906 57.0198 45.8306 57.739 46.1159C58.4583 46.4011 59.114 46.826 59.6681 47.366C60.2223 47.906 60.6641 48.5504 60.9678 49.2621C61.2716 49.9737 61.4315 50.7385 61.4381 51.5122C61.4448 52.2859 61.2981 53.0533 61.0066 53.7701C60.715 54.4868 60.2844 55.1388 59.7396 55.6882C59.1948 56.2376 58.5465 56.6737 57.8323 56.9713C57.118 57.2689 56.3519 57.422 55.5781 57.4219Z" fill="#8A8987"/>
<path id="Vector_4" d="M12.2188 35.1562C12.2195 34.5349 12.4667 33.9392 12.906 33.4998C13.3454 33.0604 13.9411 32.8132 14.5625 32.8125H52.0625C52.6839 32.8132 53.2796 33.0604 53.719 33.4998C54.1583 33.9392 54.4055 34.5349 54.4062 35.1562V41.0156H56.75V35.1562C56.7486 33.9135 56.2543 32.722 55.3755 31.8432C54.4967 30.9645 53.3053 30.4701 52.0625 30.4688H14.5625C13.3197 30.4701 12.1283 30.9645 11.2495 31.8432C10.3707 32.722 9.8764 33.9135 9.875 35.1562V41.0156H12.2188V35.1562Z" fill="#8A8987"/>
<path id="Vector_5" d="M26.2812 37.5H28.625V39.8438H26.2812V37.5Z" fill="#8A8987"/>
<path id="Vector_6" d="M32.1406 43.3594H34.4844V45.7031H32.1406V43.3594Z" fill="#8A8987"/>
<path id="Vector_7" d="M20.4219 43.3594H22.7656V45.7031H20.4219V43.3594Z" fill="#8A8987"/>
<path id="Vector_8" d="M26.2812 49.2188H28.625V51.5625H26.2812V49.2188Z" fill="#8A8987"/>
<path id="Vector_9" d="M38 37.5H40.3438V39.8438H38V37.5Z" fill="#8A8987"/>
<path id="Vector_10" d="M43.8594 43.3594H46.2031V45.7031H43.8594V43.3594Z" fill="#8A8987"/>
<path id="Vector_11" d="M38 49.2188H40.3438V51.5625H38V49.2188Z" fill="#8A8987"/>
<path id="Vector_12" d="M69.25 0H36.4375C35.1947 0.00139577 34.0033 0.495704 33.1245 1.37448C32.2457 2.25325 31.7514 3.44473 31.75 4.6875V5.85938H34.0938V4.6875C34.0945 4.06612 34.3417 3.47041 34.781 3.03103C35.2204 2.59165 35.8161 2.34449 36.4375 2.34375H51.6719V26.9531H54.0156V2.34375H69.25C69.8714 2.34449 70.4671 2.59165 70.9065 3.03103C71.3458 3.47041 71.593 4.06612 71.5938 4.6875V63.2812C71.593 63.9026 71.3458 64.4983 70.9065 64.9377C70.4671 65.3771 69.8714 65.6243 69.25 65.625H58.7031V67.9688H61.4945L63.5144 72.0085C63.6117 72.2031 63.7613 72.3668 63.9464 72.4812C64.1316 72.5956 64.3449 72.6562 64.5625 72.6562H68.0781C68.3889 72.6562 68.687 72.5328 68.9068 72.313C69.1265 72.0932 69.25 71.7952 69.25 71.4844V67.9688C70.4928 67.9674 71.6842 67.473 72.563 66.5943C73.4418 65.7155 73.9361 64.524 73.9375 63.2812V4.6875C73.9361 3.44473 73.4418 2.25325 72.563 1.37448C71.6842 0.495704 70.4928 0.00139577 69.25 0ZM66.9062 70.3125H65.2867L64.1148 67.9688H66.9062V70.3125Z" fill="#8A8987"/>
<path id="Vector_13" d="M11.0468 25.7812H21.5937V28.125H23.9374V25.7812H34.4843C34.6464 25.7812 34.8067 25.7476 34.9552 25.6825C35.1036 25.6173 35.2369 25.5221 35.3467 25.4028C35.4564 25.2835 35.5402 25.1428 35.5928 24.9894C35.6454 24.8361 35.6656 24.6735 35.6521 24.512L34.4802 10.4495C34.4558 10.1566 34.3222 9.88351 34.1059 9.6845C33.8896 9.48548 33.6064 9.37501 33.3124 9.375H23.9374V7.03125H21.5937V9.375H12.2187C11.9248 9.37501 11.6416 9.48548 11.4253 9.6845C11.209 9.88351 11.0754 10.1566 11.0509 10.4495L9.87906 24.512C9.86558 24.6735 9.88577 24.8361 9.93834 24.9894C9.9909 25.1428 10.0747 25.2835 10.1845 25.4028C10.2942 25.5221 10.4275 25.6173 10.576 25.6825C10.7244 25.7476 10.8847 25.7812 11.0468 25.7812ZM13.297 11.7188H32.2342L33.2108 23.4375H12.3204L13.297 11.7188Z" fill="#8A8987"/>
</g>
</g>
</svg>
