<svg width="76" height="75" viewBox="0 0 76 75" fill="none" xmlns="http://www.w3.org/2000/svg">
<g id="interior-design 1" clip-path="url(#clip0_594_685)">
<g id="Group">
<g id="Group_2">
<path id="Vector" d="M0.5 0V75H54.9737V64.7369H47.8685V67.8948H7.60522V63.9475H11.5525H13.9209H18.263C20.2219 63.9475 21.8157 62.3539 21.8157 60.3948V43.0263C21.8157 41.0673 20.2221 39.4736 18.263 39.4736H13.921H11.5527H7.60522V32.3684H13.921V30.5546L21.4524 36.8307L22.9687 35.0112L13.921 27.4717V25.2631H7.60522V7.10522H9.97358V13.421H13.1315V16.9737C13.1315 20.2387 15.7875 22.8948 19.0525 22.8948C22.3175 22.8948 24.9736 20.2387 24.9736 16.9737V13.421H28.1315V7.10522H30.5V25.2631H22.6052V32.3684H37.6052V7.10522H39.9736V17.3684V26.0525V43.4209H66.0263V26.0527V17.3685V7.10522H68.3946V47.3684H47.8684V57.5358L43.4785 61.9258L45.1531 63.6004L51.1221 57.6315H54.9737V54.4736H75.5V0H0.5ZM13.921 41.8421H18.2631C18.9162 41.8421 19.4473 42.3732 19.4473 43.0263C19.4473 43.6793 18.9162 44.2104 18.2631 44.2104H13.921V41.8421ZM13.921 46.579H18.2631C18.6783 46.579 19.0767 46.5066 19.4473 46.3752V57.0457C19.0767 56.9142 18.6783 56.8419 18.2631 56.8419H13.921V46.579ZM13.921 59.2106H18.2631C18.9162 59.2106 19.4473 59.7417 19.4473 60.3948C19.4473 61.0478 18.9162 61.579 18.2631 61.579H13.921V59.2106ZM11.5527 41.8421V46.579V56.8421V61.579H7.60522V41.8421H11.5527ZM22.6052 16.9737C22.6052 18.9327 21.0116 20.5264 19.0525 20.5264C17.0936 20.5264 15.4999 18.9328 15.4999 16.9737V13.421H22.6051L22.6052 16.9737ZM25.7631 11.0527H24.9736H13.1316H12.3422V7.10522H25.7633V11.0527H25.7631ZM63.6579 41.0527H42.3421V26.0527H63.6579V41.0527ZM63.6579 23.6842H42.3421V19.7369H63.6579V23.6842ZM63.6579 17.3684H42.3421V7.10522H63.6579V17.3684ZM73.1316 52.1052H52.6052V55.2631H50.2369V49.7369H70.7631V4.73687H66.0263H39.9737H35.2369V30H24.9737V27.6316H32.8685V4.73687H28.1316H9.97373H5.23687V27.6316H11.5527V30H5.23687V39.4737V63.9475V70.2633H50.2369V67.1054H52.6052V72.6316H2.86836V2.36836H73.1315V52.1052H73.1316Z" fill="#8A8987"/>
</g>
</g>
<g id="Group_3">
<g id="Group_4">
<path id="Vector_2" d="M58.5263 7.89478H47.4736C46.3852 7.89478 45.4999 8.78013 45.4999 9.86851V14.6054C45.4999 15.6937 46.3852 16.5791 47.4736 16.5791H58.5263C59.6147 16.5791 60.5 15.6937 60.5 14.6054V9.86836C60.5 8.77998 59.6147 7.89478 58.5263 7.89478ZM58.1317 14.2106H47.8685V10.2631H58.1317V14.2106Z" fill="#8A8987"/>
</g>
</g>
<g id="Group_5">
<g id="Group_6">
<path id="Vector_3" d="M32.4737 44.8564C27.3884 44.8564 23.2512 48.9936 23.2512 54.079C23.2512 59.1643 27.3884 63.3015 32.4737 63.3015C37.5591 63.3015 41.6962 59.1643 41.6962 54.079C41.6962 48.9936 37.5589 44.8564 32.4737 44.8564ZM32.4737 60.933C28.6944 60.933 25.6197 57.8582 25.6197 54.079C25.6197 50.2997 28.6944 47.225 32.4737 47.225C36.253 47.225 39.3277 50.2997 39.3277 54.079C39.3277 57.8582 36.253 60.933 32.4737 60.933Z" fill="#8A8987"/>
</g>
</g>
<g id="Group_7">
<g id="Group_8">
<path id="Vector_4" d="M62.4729 61.579H60.1045V63.9473H62.4729V61.579Z" fill="#8A8987"/>
</g>
</g>
<g id="Group_9">
<g id="Group_10">
<path id="Vector_5" d="M71.948 61.579H69.5796V63.9473H71.948V61.579Z" fill="#8A8987"/>
</g>
</g>
<g id="Group_11">
<g id="Group_12">
<path id="Vector_6" d="M67.2116 61.579H64.8433V63.9473H67.2116V61.579Z" fill="#8A8987"/>
</g>
</g>
</g>
<defs>
<clipPath id="clip0_594_685">
<rect width="75" height="75" fill="white" transform="translate(0.5)"/>
</clipPath>
</defs>
</svg>
