<svg width="128" height="61" viewBox="0 0 128 61" fill="none" xmlns="http://www.w3.org/2000/svg">
<g clip-path="url(#clip0_1202_2)">
<mask id="mask0_1202_2" style="mask-type:luminance" maskUnits="userSpaceOnUse" x="0" y="19" width="127" height="41">
<path d="M127 19.5H0V59.5H127V19.5Z" fill="white"/>
</mask>
<g mask="url(#mask0_1202_2)">
<path d="M49.8854 50.1667C49.8854 42.271 55.6854 36.471 63.9025 36.471C72.1196 36.471 77.9196 42.271 77.9196 50.1667M76.7914 50.1667C76.7914 42.8761 71.4734 37.4778 63.9008 37.4778C56.3281 37.4778 51.0119 42.8761 51.0119 50.1667" fill="#898886"/>
<path d="M49.8854 50.1667C49.8854 42.271 55.6854 36.471 63.9025 36.471C72.1196 36.471 77.9196 42.271 77.9196 50.1667M76.7914 50.1667C76.7914 42.8761 71.4734 37.4778 63.9008 37.4778C56.3281 37.4778 51.0119 42.8761 51.0119 50.1667" stroke="#898886" stroke-width="0.5" stroke-miterlimit="10"/>
<path d="M10.8363 50.0367C10.7201 50.0367 10.6654 49.994 10.6654 49.9068C10.6783 49.8668 10.7005 49.8304 10.7302 49.8007C10.7599 49.771 10.7963 49.7488 10.8363 49.7359H10.7235C10.7824 49.7444 10.8424 49.7391 10.8988 49.7205C10.9553 49.7018 11.0066 49.6702 11.0488 49.6282C11.0909 49.5863 11.1227 49.535 11.1416 49.4787C11.1605 49.4223 11.166 49.3623 11.1577 49.3034V20.6965C11.166 20.6377 11.1605 20.5776 11.1416 20.5213C11.1227 20.4649 11.0909 20.4137 11.0488 20.3717C11.0066 20.3297 10.9553 20.2982 10.8988 20.2795C10.8424 20.2608 10.7824 20.2555 10.7235 20.2641H4.17991C3.16795 20.2937 2.39473 20.5968 1.86026 21.1735C1.32153 21.7644 1.03399 22.5418 1.05855 23.341H0.754272V19.5529H23.6842V23.3359H23.3816V23.2914C23.3944 22.8944 23.3289 22.4988 23.1887 22.1272C23.0485 21.7555 22.8364 21.4152 22.5645 21.1256C22.0164 20.5478 21.2215 20.2589 20.1799 20.2589H13.4124C13.3535 20.2504 13.2935 20.2557 13.2371 20.2743C13.1806 20.293 13.1293 20.3246 13.0871 20.3666C13.045 20.4085 13.0132 20.4597 12.9943 20.5161C12.9754 20.5725 12.9699 20.6325 12.9782 20.6914V49.3C12.9699 49.3589 12.9754 49.4189 12.9943 49.4753C13.0132 49.5316 13.045 49.5828 13.0871 49.6248C13.1293 49.6668 13.1806 49.6984 13.2371 49.717C13.2935 49.7357 13.3535 49.741 13.4124 49.7324H13.2996C13.4432 49.7324 13.5013 49.7923 13.4705 49.9034C13.4612 49.9413 13.4391 49.9749 13.408 49.9985C13.3769 50.0222 13.3386 50.0344 13.2996 50.0333L10.8363 50.0367Z" fill="#898886"/>
<path d="M10.8363 50.0367C10.7201 50.0367 10.6654 49.994 10.6654 49.9068C10.6783 49.8668 10.7005 49.8304 10.7302 49.8007C10.7599 49.771 10.7963 49.7488 10.8363 49.7359H10.7235C10.7824 49.7444 10.8424 49.7391 10.8988 49.7205C10.9553 49.7018 11.0066 49.6702 11.0488 49.6282C11.0909 49.5863 11.1227 49.535 11.1416 49.4787C11.1605 49.4223 11.166 49.3623 11.1577 49.3034V20.6965C11.166 20.6377 11.1605 20.5776 11.1416 20.5213C11.1227 20.4649 11.0909 20.4137 11.0488 20.3717C11.0066 20.3297 10.9553 20.2982 10.8988 20.2795C10.8424 20.2608 10.7824 20.2555 10.7235 20.2641H4.17991C3.16795 20.2937 2.39473 20.5968 1.86026 21.1735C1.32153 21.7644 1.03399 22.5418 1.05855 23.341H0.754272V19.5529H23.6842V23.3359H23.3816V23.2914C23.3944 22.8944 23.3289 22.4988 23.1887 22.1272C23.0485 21.7555 22.8364 21.4152 22.5645 21.1256C22.0164 20.5478 21.2215 20.2589 20.1799 20.2589H13.4124C13.3535 20.2504 13.2935 20.2557 13.2371 20.2743C13.1806 20.293 13.1293 20.3246 13.0871 20.3666C13.045 20.4085 13.0132 20.4597 12.9943 20.5161C12.9754 20.5725 12.9699 20.6325 12.9782 20.6914V49.3C12.9699 49.3589 12.9754 49.4189 12.9943 49.4753C13.0132 49.5316 13.045 49.5828 13.0871 49.6248C13.1293 49.6668 13.1806 49.6984 13.2371 49.717C13.2935 49.7357 13.3535 49.741 13.4124 49.7324H13.2996C13.4432 49.7324 13.5013 49.7923 13.4705 49.9034C13.4612 49.9413 13.4391 49.9749 13.408 49.9985C13.3769 50.0222 13.3386 50.0344 13.2996 50.0333L10.8363 50.0367Z" stroke="#898886" stroke-width="0.5" stroke-miterlimit="10"/>
<path d="M33.5385 20.259C33.4222 20.259 33.3675 20.2145 33.3675 20.1273C33.3648 20.1042 33.3673 20.0808 33.3749 20.0588C33.3825 20.0368 33.395 20.0168 33.4115 20.0004C33.428 19.9839 33.4479 19.9714 33.4699 19.9638C33.4919 19.9562 33.5153 19.9537 33.5385 19.9564H35.5179L46.6667 49.7342H46.7487C46.7718 49.7314 46.7953 49.734 46.8172 49.7416C46.8392 49.7492 46.8592 49.7617 46.8757 49.7782C46.8921 49.7946 46.9046 49.8146 46.9123 49.8366C46.9199 49.8586 46.9224 49.882 46.9197 49.9051C46.9197 49.9923 46.8615 50.035 46.7487 50.035H44.6667C44.5504 50.035 44.4957 49.9923 44.4957 49.9051C44.493 49.882 44.4955 49.8586 44.5031 49.8366C44.5107 49.8146 44.5232 49.7946 44.5397 49.7782C44.5562 49.7617 44.5761 49.7492 44.5981 49.7416C44.6201 49.734 44.6435 49.7314 44.6667 49.7342H44.8376L40.2872 37.553H27.6376L23.1726 49.7342H23.212C23.2351 49.7314 23.2585 49.734 23.2805 49.7416C23.3025 49.7492 23.3225 49.7617 23.3389 49.7782C23.3554 49.7946 23.3679 49.8146 23.3755 49.8366C23.3831 49.8586 23.3856 49.882 23.3829 49.9051C23.3829 49.9923 23.3248 50.035 23.212 50.035H22.6991C22.5829 50.035 22.5282 49.9923 22.5282 49.9051C22.5251 49.8819 22.5274 49.8584 22.5349 49.8362C22.5424 49.8141 22.5549 49.7939 22.5714 49.7774C22.588 49.7609 22.6081 49.7484 22.6302 49.7409C22.6524 49.7334 22.676 49.7311 22.6991 49.7342H22.829L33.5778 20.259H33.5385ZM33.8273 20.4299L27.7145 37.2487H40.1555L33.8273 20.4299Z" fill="#898886"/>
<path d="M34.0116 20.3036C33.8954 20.3036 33.8407 20.2592 33.8407 20.172C33.8379 20.1489 33.8404 20.1255 33.8481 20.1035C33.8557 20.0815 33.8682 20.0615 33.8846 20.0451C33.9011 20.0286 33.9211 20.0161 33.9431 20.0085C33.9651 20.0009 33.9885 19.9983 34.0116 20.0011H35.9911L47.1398 49.7789H47.2219C47.245 49.7761 47.2684 49.7786 47.2904 49.7863C47.3124 49.7939 47.3324 49.8064 47.3488 49.8228C47.3653 49.8393 47.3778 49.8593 47.3854 49.8813C47.393 49.9033 47.3955 49.9267 47.3928 49.9498C47.3928 50.037 47.3347 50.0797 47.2219 50.0797H45.1398C45.0236 50.0797 44.9689 50.037 44.9689 49.9498C44.9661 49.9267 44.9686 49.9033 44.9763 49.8813C44.9839 49.8593 44.9964 49.8393 45.0128 49.8228C45.0293 49.8064 45.0493 49.7939 45.0713 49.7863C45.0933 49.7786 45.1167 49.7761 45.1398 49.7789H45.3107L40.7603 37.5977H28.1107L23.6458 49.7789H23.6851C23.7082 49.7761 23.7316 49.7786 23.7536 49.7863C23.7756 49.7939 23.7956 49.8064 23.8121 49.8228C23.8285 49.8393 23.841 49.8593 23.8486 49.8813C23.8563 49.9033 23.8588 49.9267 23.856 49.9498C23.856 50.037 23.7979 50.0797 23.6851 50.0797H23.1723C23.056 50.0797 23.0013 50.037 23.0013 49.9498C22.9982 49.9266 23.0005 49.903 23.008 49.8809C23.0155 49.8587 23.028 49.8386 23.0446 49.8221C23.0611 49.8056 23.0812 49.793 23.1034 49.7855C23.1255 49.7781 23.1491 49.7758 23.1723 49.7789H23.3022L34.0509 20.3036H34.0116ZM34.3005 20.4746L28.1877 37.2934H40.6287L34.3005 20.4746Z" fill="#898886" stroke="#898886" stroke-width="0.5" stroke-miterlimit="10"/>
<path d="M80.8808 49.5C81.1697 49.5 81.1611 49.3564 81.1611 49.0675V20.4162C81.1611 20.1564 81.0466 20.0248 80.8192 20.0248H80.8551C80.7697 20.0248 80.7252 19.9752 80.7252 19.8744C80.7252 19.7735 80.7697 19.7222 80.8551 19.7222H83.1919C83.3355 19.7222 83.3936 19.7803 83.3628 19.8932C83.3535 19.9311 83.3314 19.9647 83.3003 19.9883C83.2692 20.012 83.2309 20.0242 83.1919 20.0231C82.9321 20.0231 82.9902 20.1547 82.9902 20.4145V49.0727C82.9829 49.1307 82.989 49.1896 83.008 49.2448C83.0271 49.3001 83.0585 49.3503 83.0999 49.3916C83.1413 49.4328 83.1916 49.464 83.247 49.4828C83.3023 49.5016 83.3613 49.5075 83.4192 49.5H93.8654C95.1076 49.443 96.1041 48.9872 96.8551 48.1325C97.6073 47.2778 97.9834 46.5701 97.9834 45.1257H98.291L98.2056 49.9769H80.8021C80.7167 49.9769 80.7594 49.7513 80.7594 49.6487C80.7594 49.5462 80.8021 49.4966 80.8893 49.4966L80.8808 49.5Z" fill="#898886"/>
<path d="M80.8808 49.5C81.1697 49.5 81.1611 49.3564 81.1611 49.0675V20.4162C81.1611 20.1564 81.0466 20.0248 80.8192 20.0248H80.8551C80.7697 20.0248 80.7252 19.9752 80.7252 19.8744C80.7252 19.7735 80.7697 19.7222 80.8551 19.7222H83.1919C83.3355 19.7222 83.3936 19.7803 83.3628 19.8932C83.3535 19.9311 83.3314 19.9647 83.3003 19.9883C83.2692 20.012 83.2309 20.0242 83.1919 20.0231C82.9321 20.0231 82.9902 20.1547 82.9902 20.4145V49.0727C82.9829 49.1307 82.989 49.1896 83.008 49.2448C83.0271 49.3001 83.0585 49.3503 83.0999 49.3916C83.1413 49.4328 83.1916 49.464 83.247 49.4828C83.3023 49.5016 83.3613 49.5075 83.4192 49.5H93.8654C95.1076 49.443 96.1041 48.9872 96.8551 48.1325C97.6073 47.2778 97.9834 46.5701 97.9834 45.1257H98.291L98.2056 49.9769H80.8021C80.7167 49.9769 80.7594 49.7513 80.7594 49.6487C80.7594 49.5462 80.8021 49.4966 80.8893 49.4966L80.8808 49.5Z" stroke="#898886" stroke-width="0.5" stroke-miterlimit="10"/>
<path d="M112.649 20.2589C112.533 20.2589 112.478 20.2144 112.478 20.1273C112.475 20.1041 112.478 20.0805 112.485 20.0584C112.493 20.0362 112.505 20.0161 112.522 19.9995C112.538 19.983 112.558 19.9705 112.58 19.963C112.603 19.9555 112.626 19.9532 112.649 19.9563H114.666L125.812 49.7341H125.87C125.893 49.7314 125.916 49.7339 125.938 49.7415C125.96 49.7491 125.98 49.7616 125.997 49.7781C126.013 49.7945 126.026 49.8145 126.033 49.8365C126.041 49.8585 126.044 49.8819 126.041 49.905C126.041 49.9922 125.983 50.035 125.87 50.035H123.931C123.815 50.035 123.76 49.9922 123.76 49.905C123.758 49.8819 123.76 49.8585 123.768 49.8365C123.776 49.8145 123.788 49.7945 123.804 49.7781C123.821 49.7616 123.841 49.7491 123.863 49.7415C123.885 49.7339 123.908 49.7314 123.931 49.7341H123.988L119.436 37.5529H106.778L102.313 49.7341C102.336 49.7314 102.359 49.7339 102.381 49.7415C102.403 49.7491 102.423 49.7616 102.44 49.7781C102.456 49.7945 102.469 49.8145 102.476 49.8365C102.484 49.8585 102.486 49.8819 102.484 49.905C102.484 49.9922 102.425 50.035 102.313 50.035H101.909C101.793 50.035 101.738 49.9922 101.738 49.905C101.736 49.8819 101.738 49.8585 101.746 49.8365C101.753 49.8145 101.766 49.7945 101.782 49.7781C101.799 49.7616 101.819 49.7491 101.841 49.7415C101.863 49.7339 101.886 49.7314 101.909 49.7341H101.967L112.716 20.2589H112.649ZM112.978 20.4298L106.866 37.2486H119.306L112.978 20.4298Z" fill="#898886"/>
<path d="M112.912 20.3039C112.796 20.3039 112.741 20.2595 112.741 20.1723C112.738 20.1491 112.74 20.1255 112.748 20.1034C112.755 20.0812 112.768 20.0611 112.784 20.0446C112.801 20.028 112.821 20.0155 112.843 20.008C112.865 20.0005 112.889 19.9982 112.912 20.0013H114.929L126.075 49.7791H126.133C126.156 49.7764 126.179 49.7789 126.201 49.7865C126.223 49.7941 126.243 49.8066 126.26 49.8231C126.276 49.8396 126.289 49.8595 126.296 49.8815C126.304 49.9035 126.306 49.9269 126.304 49.9501C126.304 50.0372 126.246 50.08 126.133 50.08H124.194C124.078 50.08 124.023 50.0372 124.023 49.9501C124.021 49.9269 124.023 49.9035 124.031 49.8815C124.038 49.8595 124.051 49.8396 124.067 49.8231C124.084 49.8066 124.104 49.7941 124.126 49.7865C124.148 49.7789 124.171 49.7764 124.194 49.7791H124.251L119.699 37.5979H107.04L102.575 49.7791C102.599 49.7764 102.622 49.7789 102.644 49.7865C102.666 49.7941 102.686 49.8066 102.702 49.8231C102.719 49.8396 102.731 49.8595 102.739 49.8815C102.747 49.9035 102.749 49.9269 102.746 49.9501C102.746 50.0372 102.688 50.08 102.575 50.08H102.172C102.056 50.08 102.001 50.0372 102.001 49.9501C101.998 49.9269 102.001 49.9035 102.008 49.8815C102.016 49.8595 102.029 49.8396 102.045 49.8231C102.062 49.8066 102.081 49.7941 102.103 49.7865C102.125 49.7789 102.149 49.7764 102.172 49.7791H102.23L112.979 20.3039H112.912ZM113.24 20.4748L107.129 37.2936H119.569L113.24 20.4748Z" stroke="#898886" stroke-width="0.5" stroke-miterlimit="10"/>
<path d="M126.038 50.0077H10.6616V50.1393H126.038V50.0077Z" stroke="#898886" stroke-miterlimit="10"/>
<path d="M77.9217 27.0042H49.8892V27.4007H77.9217V27.0042Z" fill="#898886"/>
</g>
</g>
<path d="M72.0298 20.762C72.9942 20.762 73.538 21.4084 73.538 22.5524C73.538 23.7784 72.8454 24.435 71.84 24.435C71.5014 24.435 71.1782 24.3684 70.9474 24.2247L71.1423 23.8246C71.3321 23.9477 71.5732 23.9939 71.8348 23.9939C72.5633 23.9939 73.025 23.5373 73.025 22.6396V22.5113C72.8147 22.8242 72.435 22.9833 71.9887 22.9833C71.2757 22.9833 70.7627 22.5575 70.7627 21.8957C70.7627 21.2032 71.3167 20.762 72.0298 20.762ZM72.076 22.5678C72.5684 22.5678 72.907 22.2651 72.907 21.8701C72.907 21.5007 72.6095 21.1775 72.0503 21.1775C71.5835 21.1775 71.2603 21.4494 71.2603 21.8752C71.2603 22.2959 71.5732 22.5678 72.076 22.5678Z" fill="#898886"/>
<path d="M68.911 24.435C68.0697 24.435 67.4438 23.7682 67.4438 22.5985C67.4438 21.4289 68.0697 20.762 68.911 20.762C69.7472 20.762 70.373 21.4289 70.373 22.5985C70.373 23.7682 69.7472 24.435 68.911 24.435ZM68.911 23.9785C69.4702 23.9785 69.86 23.5168 69.86 22.5985C69.86 21.6803 69.4702 21.2186 68.911 21.2186C68.3467 21.2186 67.9568 21.6803 67.9568 22.5985C67.9568 23.5168 68.3467 23.9785 68.911 23.9785Z" fill="#898886"/>
<path d="M65.4886 24.435C64.6473 24.435 64.0215 23.7682 64.0215 22.5985C64.0215 21.4289 64.6473 20.762 65.4886 20.762C66.3248 20.762 66.9507 21.4289 66.9507 22.5985C66.9507 23.7682 66.3248 24.435 65.4886 24.435ZM65.4886 23.9785C66.0478 23.9785 66.4377 23.5168 66.4377 22.5985C66.4377 21.6803 66.0478 21.2186 65.4886 21.2186C64.9243 21.2186 64.5345 21.6803 64.5345 22.5985C64.5345 23.5168 64.9243 23.9785 65.4886 23.9785Z" fill="#898886"/>
<path d="M61.7732 23.9477H63.6148V24.394H61.0345V24.0452L62.4965 22.6344C62.8761 22.2651 62.948 22.0394 62.948 21.8137C62.948 21.4443 62.6863 21.2186 62.1836 21.2186C61.7988 21.2186 61.4859 21.3417 61.2653 21.6085L60.9165 21.3058C61.1935 20.9621 61.6706 20.762 62.2298 20.762C62.9787 20.762 63.4609 21.1468 63.4609 21.7624C63.4609 22.1112 63.3583 22.4241 62.871 22.8909L61.7732 23.9477Z" fill="#898886"/>
<path d="M57.7082 24.394V21.2494H56.4771V20.8031H59.4473V21.2494H58.2161V24.394H57.7082Z" fill="#898886"/>
<path d="M54.9057 24.435C54.3568 24.435 53.8182 24.2504 53.5309 23.9836L53.7207 23.5835C53.9874 23.8246 54.444 23.999 54.9057 23.999C55.5264 23.999 55.7932 23.7579 55.7932 23.445C55.7932 22.5678 53.6181 23.1218 53.6181 21.788C53.6181 21.234 54.049 20.762 54.9929 20.762C55.4136 20.762 55.8496 20.8749 56.1471 21.0801L55.9779 21.4905C55.6649 21.2904 55.311 21.1981 54.9929 21.1981C54.3825 21.1981 54.1208 21.4546 54.1208 21.7675C54.1208 22.6447 56.2959 22.0958 56.2959 23.4142C56.2959 23.9631 55.8547 24.435 54.9057 24.435Z" fill="#898886"/>
<path d="M50.9354 23.9477H53.0284V24.394H50.4224V20.8031H52.9565V21.2494H50.9354V22.3523H52.736V22.7884H50.9354V23.9477Z" fill="#898886"/>
<path d="M91.1576 53.2249H90.5046V59.3959H91.1576V53.2249Z" fill="#898886"/>
<path d="M97.3013 56.7069V59.3958H96.6757V56.765C96.6757 55.7872 96.1629 55.2847 95.2825 55.2847C94.286 55.2847 93.6603 55.9018 93.6603 56.9599V59.3923H93.0347V54.7582H93.6347V55.6129C93.9766 55.0488 94.5954 54.7223 95.3971 54.7223C96.5253 54.7223 97.3013 55.3735 97.3013 56.7052" fill="#898886"/>
<path d="M101.445 59.1137C101.167 59.3356 100.82 59.4514 100.465 59.4402C99.5933 59.4402 99.1079 58.9462 99.1079 58.0915V55.2881H98.2788V54.7582H99.1079V53.7445H99.7335V54.7582H101.145V55.2881H99.7335V58.0556C99.7335 58.6026 100.016 58.9103 100.537 58.9103C100.786 58.9168 101.029 58.8323 101.221 58.6727L101.445 59.1137Z" fill="#898886"/>
<path d="M106.444 56.8215L102.643 57.5924C102.904 58.5292 103.759 59.0129 104.752 58.8112C105.015 58.7659 105.265 58.6638 105.484 58.5121C105.703 58.3603 105.887 58.1626 106.022 57.9326L106.448 58.2591C106.278 58.549 106.046 58.7979 105.769 58.9879C105.492 59.1779 105.176 59.3044 104.844 59.3582C103.427 59.6454 102.263 58.8744 101.99 57.5274C101.716 56.1804 102.463 55.0283 103.742 54.7685C105.02 54.5086 106.135 55.2642 106.414 56.6283C106.424 56.6813 106.431 56.7514 106.444 56.8215ZM102.549 57.1343L105.773 56.4796C105.671 56.0699 105.412 55.7164 105.053 55.4952C104.693 55.274 104.261 55.2027 103.85 55.2967C102.969 55.4676 102.446 56.2283 102.549 57.1343Z" fill="#898886"/>
<path d="M110.073 54.7239V55.3325C110.02 55.3325 109.967 55.3325 109.925 55.3325C108.954 55.3325 108.364 55.9496 108.364 57.0419V59.4043H107.738V54.7581H108.337V55.6675C108.629 55.0504 109.219 54.7239 110.073 54.7239Z" fill="#898886"/>
<path d="M111.062 53.2948C111.065 53.1757 111.114 53.0625 111.2 52.9799C111.286 52.8973 111.401 52.8519 111.52 52.8538C111.581 52.85 111.642 52.8587 111.699 52.8794C111.756 52.9001 111.809 52.9323 111.853 52.974C111.898 53.0157 111.933 53.0661 111.957 53.122C111.981 53.1779 111.994 53.2381 111.994 53.2991C111.994 53.36 111.981 53.4202 111.957 53.4762C111.933 53.5321 111.898 53.5824 111.853 53.6241C111.809 53.6659 111.756 53.6981 111.699 53.7187C111.642 53.7394 111.581 53.7481 111.52 53.7444C111.46 53.7453 111.401 53.7343 111.346 53.7122C111.29 53.69 111.24 53.657 111.197 53.6152C111.155 53.5734 111.121 53.5236 111.097 53.4686C111.074 53.4136 111.062 53.3545 111.062 53.2948ZM111.202 54.758H111.828V59.3956H111.202V54.758Z" fill="#898886"/>
<path d="M113.106 57.0778C113.106 55.7017 114.111 54.7239 115.468 54.7239C115.935 54.7246 116.391 54.8637 116.779 55.1235C117.166 55.3834 117.468 55.7523 117.646 56.1837C117.824 56.6151 117.87 57.0896 117.778 57.5471C117.686 58.0046 117.461 58.4246 117.13 58.754C116.8 59.0833 116.379 59.3073 115.921 59.3974C115.463 59.4876 114.989 59.44 114.558 59.2605C114.127 59.0811 113.759 58.7779 113.501 58.3894C113.242 58.0009 113.105 57.5444 113.106 57.0778ZM117.188 57.0778C117.188 55.994 116.457 55.2709 115.468 55.2709C114.48 55.2709 113.74 55.994 113.74 57.0778C113.74 58.1615 114.482 58.8846 115.468 58.8846C116.455 58.8846 117.188 58.1615 117.188 57.0778Z" fill="#898886"/>
<path d="M121.436 54.7239V55.3325C121.383 55.3325 121.331 55.3325 121.287 55.3325C120.316 55.3325 119.726 55.9496 119.726 57.0419V59.4043H119.101V54.7581H119.699V55.6675C119.991 55.0504 120.581 54.7239 121.436 54.7239Z" fill="#898886"/>
<path d="M121.956 58.8674L122.238 58.3734C122.72 58.7135 123.297 58.893 123.888 58.8862C124.77 58.8862 125.13 58.5871 125.13 58.129C125.13 56.9204 122.123 57.8726 122.123 56.0384C122.123 55.2811 122.776 54.717 123.958 54.717C124.533 54.7077 125.101 54.8573 125.597 55.1495L125.325 55.6521C124.921 55.383 124.443 55.244 123.958 55.2538C123.12 55.2538 122.751 55.5803 122.751 56.0213C122.751 57.2743 125.756 56.3307 125.756 58.1102C125.756 58.9136 125.052 59.4333 123.843 59.4333C123.076 59.4333 122.335 59.1871 121.963 58.8606" fill="#898886"/>
<defs>
<clipPath id="clip0_1202_2">
<rect width="128" height="40" fill="white" transform="translate(0 20)"/>
</clipPath>
</defs>
</svg>
