<svg width="26" height="26" viewBox="0 0 26 26" fill="none" xmlns="http://www.w3.org/2000/svg">
<path fill-rule="evenodd" clip-rule="evenodd" d="M1.3348 22.3107C0.683965 22.9617 0.684066 24.0168 1.335 24.6677C1.98593 25.3185 3.0412 25.3185 3.69201 24.6675L13.0007 15.3572L22.3102 24.6667C22.9611 25.3175 24.0164 25.3175 24.6672 24.6667C25.3181 24.0158 25.3181 22.9605 24.6672 22.3097L15.3576 13L24.6666 3.68938C25.3172 3.03845 25.3172 1.98318 24.6662 1.33236C24.0154 0.681529 22.9601 0.681628 22.3092 1.33256L13.0004 10.643L3.69088 1.33336C3.04001 0.682495 1.98473 0.682495 1.33387 1.33336C0.682982 1.98425 0.682982 3.03951 1.33387 3.6904L10.6437 13.0002L1.3348 22.3107Z" fill="#8A8987"/>
</svg>
