<svg width="40" height="40" viewBox="0 0 40 40" fill="none" xmlns="http://www.w3.org/2000/svg">
<g id="partnership 1">
<path id="Vector" fill-rule="evenodd" clip-rule="evenodd" d="M11.5567 11.8673C12.3651 12.334 13.2486 12.5557 14.1211 12.5557C15.83 12.5557 17.4964 11.7048 18.469 10.1772H24.1772C24.3537 10.1772 24.522 10.1026 24.6405 9.97172L25.3478 9.19078L26.0551 9.97172C26.1736 10.1025 26.3418 10.1771 26.5183 10.1771C26.6948 10.1771 26.8631 10.1025 26.9816 9.97172L27.6889 9.19078L28.3961 9.97172C28.5147 10.1026 28.6829 10.1772 28.8594 10.1772H29.6554C29.8134 10.1772 29.9655 10.1173 30.0812 10.0096L32.3816 7.86805C32.5086 7.74985 32.5807 7.58414 32.5807 7.41063C32.5807 7.23711 32.5086 7.07141 32.3816 6.95321L30.0812 4.81172C29.9656 4.70407 29.8134 4.64414 29.6554 4.64414H18.4696C18.0271 3.94914 17.4222 3.36946 16.7027 2.95399C14.2453 1.53532 11.0918 2.38024 9.67302 4.83758C8.25427 7.29492 9.09927 10.4484 11.5567 11.8673ZM10.7556 5.46258C11.8298 3.60211 14.2174 2.96242 16.0778 4.03649C16.7066 4.39953 17.2195 4.92797 17.5611 5.56461C17.6699 5.7675 17.8815 5.89414 18.1118 5.89414H29.4094L31.0385 7.41063L29.4094 8.92719H29.1365L28.1521 7.84024C28.0336 7.70938 27.8654 7.63477 27.6888 7.63477C27.5122 7.63477 27.344 7.70938 27.2256 7.84016L26.5182 8.6211L25.8109 7.84016C25.6924 7.70938 25.5242 7.63477 25.3477 7.63477C25.1712 7.63477 25.0029 7.70946 24.8844 7.84024L23.9 8.92719H18.1111C17.8813 8.92719 17.67 9.05336 17.5609 9.25578C17.5424 9.29016 17.5235 9.32446 17.5037 9.35875C16.4296 11.2192 14.0421 11.8591 12.1815 10.7848C10.3212 9.71055 9.68145 7.32305 10.7556 5.46258ZM13.0359 9.37985C14.1217 9.37977 15.005 8.49641 15.0051 7.41055C15.0051 6.32477 14.1217 5.44133 13.0358 5.44133C11.95 5.44133 11.0666 6.32469 11.0666 7.41055C11.0666 8.49641 11.95 9.37985 13.0359 9.37985ZM13.0358 6.69141C13.4325 6.69141 13.7551 7.01399 13.7551 7.41055C13.7551 7.80719 13.4325 8.12985 13.0358 8.12985C12.6392 8.12985 12.3166 7.80719 12.3166 7.41055C12.3166 7.01399 12.6393 6.69141 13.0358 6.69141ZM7.22856 14.3321C7.24747 13.9233 7.59427 13.6073 8.0031 13.6262C8.41192 13.6452 8.72794 13.9919 8.70895 14.4007C8.69005 14.8095 8.34325 15.1255 7.93442 15.1066C7.52567 15.0877 7.20958 14.7409 7.22856 14.3321ZM39.26 24.5117L34.7821 12.9611C34.6171 12.5353 34.295 12.1989 33.8754 12.0137C33.4557 11.8284 32.9901 11.8174 32.5643 11.9825L30.3408 12.8445C29.4596 13.1861 29.0206 14.1809 29.3622 15.0622L29.703 15.9412L28.465 16.6038C27.7862 16.9571 27.1143 16.7132 25.9854 16.2517C24.4707 15.6326 22.4187 14.7958 19.748 16.447C17.8148 15.3112 16.1578 15.6987 14.8115 16.014C13.7799 16.2556 12.9653 16.4464 12.1852 16.0075C12.1706 15.9993 12.1558 15.9916 12.1405 15.9847L10.7208 15.3297L11.0964 14.4798C11.4784 13.6153 11.0859 12.6012 10.2215 12.2191L8.0402 11.255C7.17567 10.8729 6.16153 11.2654 5.7795 12.1298L0.771533 23.4607C0.586924 23.8784 0.576377 24.344 0.742002 24.7718C0.907549 25.1995 1.22872 25.5368 1.64638 25.7214L3.82763 26.6855C4.05224 26.7848 4.28692 26.8318 4.5181 26.8318C5.17638 26.8317 5.80552 26.4505 6.08833 25.8107L6.32872 25.2667C7.26145 25.6824 7.51583 25.7883 7.62302 25.8298C7.89544 25.9356 7.98474 26.3175 8.09935 26.9338C8.16255 27.2735 8.22841 27.6212 8.36224 27.9392L7.7638 29.058C7.46419 29.6183 7.40114 30.2634 7.58638 30.8746C7.77169 31.4859 8.18224 31.9875 8.74247 32.2871C9.1113 32.4844 9.51567 32.5763 9.91825 32.5668C9.86505 32.9146 9.89013 33.2734 9.99552 33.6211C10.1808 34.2323 10.5913 34.734 11.1515 35.0336C11.8835 35.425 12.7312 35.3933 13.4136 35.0239C13.627 35.4821 13.9843 35.8719 14.4487 36.1203C15.1047 36.4712 15.8641 36.4838 16.5114 36.2084C16.7118 36.7306 17.0944 37.178 17.6129 37.4552C17.9623 37.6421 18.3447 37.737 18.7313 37.737C18.9646 37.737 19.1995 37.7024 19.4296 37.6327C19.9424 37.4773 20.3775 37.1629 20.6815 36.7349L21.2944 37.087C21.6415 37.2864 22.0272 37.388 22.42 37.388C22.6297 37.388 22.8415 37.359 23.0502 37.3005C23.6548 37.131 24.1743 36.7198 24.4756 36.1722C24.6822 35.7964 24.7736 35.3867 24.7615 34.9845C25.1326 35.065 25.5212 35.0526 25.8984 34.944C26.502 34.7702 27.0002 34.373 27.3013 33.8256C27.5209 33.4265 27.6095 32.9884 27.5818 32.5615C28.509 32.6845 29.4602 32.2398 29.9372 31.3725C30.2604 30.7849 30.3 30.1131 30.102 29.5166C30.1271 29.5103 30.1521 29.5036 30.177 29.4965C30.7831 29.323 31.2832 28.9252 31.5853 28.376C31.8399 27.9131 31.9242 27.3802 31.8368 26.8674L33.6461 26.1125L33.8401 26.6129C34.1031 27.2912 34.7531 27.7074 35.4403 27.7074C35.6459 27.7074 35.8549 27.6702 36.0579 27.5915L38.2814 26.7295C39.1626 26.3879 39.6016 25.393 39.26 24.5117ZM4.33294 25.5423L2.15177 24.5782C2.03942 24.5286 1.95278 24.4371 1.90771 24.3207C1.86263 24.2043 1.86521 24.0784 1.91481 23.9661L6.92278 12.6352C6.99935 12.462 7.16966 12.3587 7.34794 12.3587C7.41052 12.3587 7.47403 12.3714 7.53489 12.3983L9.71606 13.3623C9.95013 13.4658 10.0564 13.7404 9.95302 13.9745L5.44067 24.184C5.4406 24.1841 5.4406 24.1842 5.44052 24.1843C5.44044 24.1845 5.44044 24.1846 5.44036 24.1847L4.94505 25.3053C4.84153 25.5395 4.567 25.6457 4.33294 25.5423ZM9.33192 31.185C9.06606 31.0429 8.87099 30.8039 8.78263 30.5122C8.69419 30.2205 8.72388 29.9134 8.86599 29.6477L9.95185 27.6176C10.2469 27.0657 10.9368 26.8569 11.4896 27.152C12.0108 27.4302 12.2294 28.0656 11.9941 28.6063L10.5657 31.0784C10.2128 31.352 9.72778 31.3967 9.33192 31.185ZM11.7409 33.9315C11.4751 33.7893 11.28 33.5504 11.1916 33.2587C11.1032 32.967 11.1329 32.6599 11.275 32.3942L11.5985 31.7894L13.0428 29.2897C13.396 29.0114 13.8843 28.9645 14.284 29.1778C14.7202 29.4106 14.9552 29.9183 14.8599 30.4029L13.2818 33.4588C12.9837 34.0145 12.2927 34.2265 11.7409 33.9315ZM15.0381 35.0182C14.6436 34.8072 14.412 34.381 14.4417 33.9371L15.9664 30.9845C16.316 30.6423 16.865 30.5587 17.2997 30.7906C17.7357 31.0233 17.9705 31.5305 17.8758 32.0148L16.4763 34.7046C16.1404 35.1446 15.5289 35.2806 15.0381 35.0182ZM19.0668 36.4366C18.7751 36.5248 18.4681 36.4953 18.2023 36.3532C17.7937 36.1347 17.5628 35.6932 17.609 35.2355L18.9812 32.5983C19.3309 32.2551 19.8804 32.1712 20.3149 32.4034C20.4646 32.4834 20.5907 32.5924 20.6902 32.7277C20.9502 33.0813 20.9858 33.5574 20.7808 33.9407L19.7397 35.8873C19.5975 36.1531 19.3586 36.3482 19.0668 36.4366ZM23.3802 35.5698C23.2397 35.8254 22.9964 36.0174 22.7127 36.097C22.4386 36.1738 22.1559 36.1405 21.9168 36.0032L21.2882 35.6422L21.883 34.5301C22.0343 34.2473 22.122 33.9406 22.1505 33.6299L22.869 34.0352C22.8945 34.0552 22.9213 34.0741 22.9504 34.0905C23.4744 34.3842 23.6672 35.0479 23.3802 35.5698ZM30.4899 27.7737C30.3497 28.0287 30.1164 28.2137 29.833 28.2948C29.5561 28.374 29.2682 28.3419 29.022 28.2044C29.0219 28.2044 29.022 28.2044 29.0219 28.2044C29.0215 28.2041 29.0211 28.2039 29.0208 28.2037C29.0206 28.2036 29.0204 28.2035 29.0201 28.2034C27.5093 27.3571 26.2505 26.6509 24.9556 25.9095C24.656 25.7381 24.2742 25.8417 24.1027 26.1413C23.9312 26.4409 24.035 26.8227 24.3346 26.9942C25.634 27.738 26.8951 28.4457 28.4086 29.2934C28.4086 29.2934 28.4086 29.2934 28.4087 29.2935C28.933 29.5887 29.1273 30.2509 28.8418 30.77C28.5536 31.2941 27.8928 31.4859 27.3686 31.1979L22.0169 28.1866C21.7161 28.0173 21.335 28.1239 21.1658 28.4248C20.9965 28.7255 21.1032 29.1066 21.404 29.2759L25.6784 31.6812C25.7074 31.7054 25.7386 31.7276 25.7728 31.7468C26.297 32.0419 26.4913 32.7042 26.2057 33.2232C26.0661 33.4772 25.834 33.6616 25.5524 33.7427C25.2741 33.8229 24.9837 33.7907 24.7349 33.6524L21.6305 31.9015C21.4311 31.6543 21.1874 31.4523 20.904 31.3009C20.3193 30.9884 19.654 30.9402 19.0564 31.1305C18.8829 30.527 18.4732 30 17.8882 29.6878C17.3034 29.3757 16.6383 29.3278 16.0408 29.5178C15.8673 28.9142 15.4576 28.3871 14.8726 28.0749C14.3858 27.815 13.8366 27.7388 13.3168 27.8344C13.2165 27.0986 12.7759 26.4216 12.078 26.0491C11.1359 25.5462 10.004 25.7413 9.27981 26.4527C9.1452 25.7838 8.90856 24.988 8.07536 24.6645C7.97466 24.6254 7.67122 24.4964 6.83403 24.1233L10.2154 16.473L11.5952 17.1096C12.7916 17.771 13.9632 17.4965 15.0965 17.2309C16.2437 16.9623 17.3379 16.7066 18.6175 17.2688C18.326 17.5131 18.0347 17.7815 17.7459 18.0734C16.6357 19.1953 15.2271 20.2577 13.5592 21.2312C13.3495 21.3536 13.2089 21.5523 13.1629 21.7913C13.1174 22.0295 13.1743 22.2659 13.3225 22.4563C14.4529 23.9107 15.6768 24.382 16.8852 24.382C18.1221 24.3819 19.3428 23.8878 20.4286 23.4482C21.8812 22.8601 23.1357 22.3523 24.14 22.9247L30.0538 26.2954C30.2529 26.4089 30.4107 26.5771 30.51 26.782V26.782C30.6665 27.1045 30.6592 27.4659 30.4899 27.7737ZM31.3071 25.7341C31.1294 25.5253 30.9157 25.348 30.6729 25.2096L24.7591 21.8389C23.2283 20.9665 21.5668 21.6392 19.9597 22.2898C17.9713 23.0946 16.2379 23.7963 14.6192 22.0548C16.1958 21.0959 17.5449 20.0538 18.6344 18.9527C19.1258 18.4561 19.6205 18.0364 20.1059 17.7044C20.1068 17.7038 20.1078 17.703 20.1088 17.7023C20.109 17.7021 20.1093 17.702 20.1097 17.7017C22.3944 16.1343 23.9795 16.7822 25.5124 17.4088C26.645 17.8717 27.8161 18.3505 29.0483 17.7094L30.1582 17.1153L33.1942 24.9466L31.3071 25.7341ZM38.0852 25.3181C38.0348 25.4323 37.944 25.5197 37.8296 25.564L35.6061 26.426C35.3674 26.5184 35.0981 26.3996 35.0055 26.161L30.5276 14.6103C30.4351 14.3717 30.554 14.1023 30.7926 14.0098L33.0162 13.1479C33.0697 13.1272 33.1255 13.1169 33.1816 13.1169C33.2457 13.1169 33.3099 13.1304 33.3708 13.1573C33.485 13.2077 33.5723 13.2984 33.6166 13.4129L38.0945 24.9635C38.1389 25.078 38.1355 25.204 38.0852 25.3181ZM33.2326 15.0938C33.2326 15.502 32.8998 15.8348 32.4916 15.8348C32.0835 15.8348 31.7506 15.502 31.7506 15.0938C31.7506 14.6857 32.0834 14.3528 32.4916 14.3528C32.8998 14.3529 33.2326 14.6858 33.2326 15.0938Z" fill="#C5AF94"/>
</g>
</svg>
