<svg width="40" height="40" viewBox="0 0 40 40" fill="none" xmlns="http://www.w3.org/2000/svg">
<g id="interior-plan 1" clip-path="url(#clip0_206_186)">
<g id="Group">
<g id="Group_2">
<path id="Vector" d="M2.46578 1.17414V0H0V40H2.46578V38.8259H1.17414V20.5871H2.46578V19.4129H1.17414V1.17414H2.46578Z" fill="#C5AF94"/>
</g>
</g>
<g id="Group_3">
<g id="Group_4">
<path id="Vector_2" d="M37.5342 0V1.17414H38.8258V19.4129H37.5342V20.5871H38.8258V38.8259H37.5342V40H40V0H37.5342Z" fill="#C5AF94"/>
</g>
</g>
<g id="Group_5">
<g id="Group_6">
<path id="Vector_3" d="M4 1.33331V8.18261H5.17414V2.50753H5.87867V24.5036H5.17414V9.43511H4V25.6778H12.6888V22.625H7.05281V12.5271H9.00977V14.758C9.00977 15.5996 9.69453 16.2844 10.5362 16.2844H16.1722C17.0138 16.2844 17.6986 15.5996 17.6986 14.758V12.5271H19.6555V15.0711H20.8297V13.7796H25.2524V12.6053H20.8297V11.3529H7.05281V9.36495C9.67094 9.09073 11.7575 7.00425 12.0316 4.3862H16.5244V8.18269H17.6985V4.3862H19.0292V6.93027C19.0292 7.59933 19.5735 8.14355 20.2425 8.14355H25.2523C25.9213 8.14355 26.4655 7.59925 26.4655 6.93027V4.3862H33.4323V8.22183H29.3927L28.4225 9.19199V13.8187H29.5966V9.67831L29.8789 9.39605H33.4323V16.989H25.0174C24.4779 16.989 24.039 17.4279 24.039 17.9675V22.625H20.8296V18.2022H19.6555V22.625H17.7768V25.6778H19.6555V32.5662H31.5145V31.3921H20.8298V25.6778H35.3112V31.3921H32.7671V32.5662H36.4853V1.33331H4ZM11.5147 23.7991V24.5036H7.05281V23.7991H11.5147ZM10.184 12.5271H16.5245V14.758C16.5245 14.9522 16.3665 15.1103 16.1723 15.1103H10.5362C10.342 15.1103 10.184 14.9522 10.184 14.758V12.5271ZM30.2231 18.1631H30.9277V22.625H30.2231V18.1631ZM25.2133 18.1631H29.0489V22.625H25.2133V18.1631ZM33.4325 24.5036H19.6555H18.951V23.7991H33.4325V24.5036ZM33.4325 22.625H32.1018V18.1631H33.4325V22.625ZM7.05281 8.183V4.3862H10.8496C10.5873 6.3562 9.02281 7.9205 7.05281 8.183ZM25.2916 6.93019C25.2916 6.95175 25.2741 6.96933 25.2524 6.96933H20.2427C20.221 6.96933 20.2035 6.95175 20.2035 6.93019V4.3862H25.2916V6.93019ZM33.4325 3.21199H7.05281V2.50745H33.4325V3.21199ZM35.3112 24.5036H34.6066V2.50753H35.3112V24.5036Z" fill="#C5AF94"/>
</g>
</g>
<g id="Group_7">
<g id="Group_8">
<path id="Vector_4" d="M6.84977 28.8062C5.14484 28.8062 3.75781 30.1934 3.75781 31.8982C3.75781 33.6031 5.14492 34.9901 6.84977 34.9901C8.55469 34.9901 9.94172 33.603 9.94172 31.8982C9.9418 30.1934 8.55469 28.8062 6.84977 28.8062ZM6.84977 33.816C5.79234 33.816 4.93195 32.9558 4.93195 31.8982C4.93195 30.8407 5.79234 29.9804 6.84977 29.9804C7.90719 29.9804 8.76758 30.8406 8.76758 31.8982C8.76758 32.9558 7.90727 33.816 6.84977 33.816Z" fill="#C5AF94"/>
</g>
</g>
<g id="Group_9">
<g id="Group_10">
<path id="Vector_5" d="M14.9904 28.8062C13.2855 28.8062 11.8984 30.1934 11.8984 31.8982C11.8984 33.6031 13.2855 34.9901 14.9904 34.9901C16.6952 34.9901 18.0823 33.603 18.0823 31.8982C18.0823 30.1934 16.6952 28.8062 14.9904 28.8062ZM14.9904 33.816C13.933 33.816 13.0726 32.9558 13.0726 31.8982C13.0726 30.8407 13.933 29.9804 14.9904 29.9804C16.0478 29.9804 16.9082 30.8406 16.9082 31.8982C16.9082 32.9558 16.0478 33.816 14.9904 33.816Z" fill="#C5AF94"/>
</g>
</g>
<g id="Group_11">
<g id="Group_12">
<path id="Vector_6" d="M33.7768 30.6849H32.5244V31.8591H33.7768V30.6849Z" fill="#C5AF94"/>
</g>
</g>
<g id="Group_13">
<g id="Group_14">
<path id="Vector_7" d="M31.272 30.6849H30.0195V31.8591H31.272V30.6849Z" fill="#C5AF94"/>
</g>
</g>
<g id="Group_15">
<g id="Group_16">
<path id="Vector_8" d="M28.7671 30.6849H27.5146V31.8591H28.7671V30.6849Z" fill="#C5AF94"/>
</g>
</g>
<g id="Group_17">
<g id="Group_18">
<path id="Vector_9" d="M25.0088 36.9472H14.9893V38.1213H25.0088V36.9472Z" fill="#C5AF94"/>
</g>
</g>
<g id="Group_19">
<g id="Group_20">
<path id="Vector_10" d="M29.3926 36.9472H26.8877V38.1213H29.3926V36.9472Z" fill="#C5AF94"/>
</g>
</g>
<g id="Group_21">
<g id="Group_22">
<path id="Vector_11" d="M13.1114 36.9472H10.6064V38.1213H13.1114V36.9472Z" fill="#C5AF94"/>
</g>
</g>
</g>
<defs>
<clipPath id="clip0_206_186">
<rect width="40" height="40" fill="white"/>
</clipPath>
</defs>
</svg>
