<svg width="40" height="40" viewBox="0 0 40 40" fill="none" xmlns="http://www.w3.org/2000/svg">
<g id="plan 1" clip-path="url(#clip0_187_32)">
<g id="Group">
<path id="Vector" d="M35.7015 8.47867V6.31289C35.7015 6.05383 35.593 5.8168 35.4224 5.64633C35.2497 5.47359 35.0149 5.36734 34.7559 5.36734H32.8115C32.5501 5.36734 32.3154 5.47359 32.1427 5.64633C31.9721 5.81688 31.8658 6.05383 31.8658 6.31289V8.47875L35.7015 8.47867ZM11.208 19.0089C10.98 18.7787 10.98 18.4088 11.208 18.1806C11.4362 17.9504 11.8082 17.9504 12.0363 18.1806L12.5701 18.7144L14.0516 17.2306C14.2798 17.0025 14.6518 17.0025 14.8799 17.2306C15.1102 17.4609 15.1102 17.8308 14.8799 18.0611L12.9843 19.9568C12.7561 20.1849 12.3841 20.1849 12.1559 19.9568L11.208 19.0089ZM33.1968 12.2479C33.1968 11.9245 33.4581 11.661 33.7837 11.661C34.107 11.661 34.3683 11.9245 34.3683 12.2479V24.5454C34.3683 24.8687 34.107 25.1323 33.7837 25.1323C33.4581 25.1323 33.1968 24.8687 33.1968 24.5454V12.2479ZM23.9597 32.0727H27.5651V29.5591H23.9597V32.0727ZM28.1497 33.2442C21.7806 33.2442 15.4091 33.2442 9.03992 33.2442C8.71656 33.2442 8.45305 32.9806 8.45305 32.6573V28.9723C8.45305 28.6489 8.71656 28.3877 9.03992 28.3877H13.2322V25.048C13.2322 24.7248 13.4935 24.4635 13.8168 24.4635H18.5959C18.9192 24.4635 19.1805 24.7248 19.1805 25.048V26.0889H23.3727C23.6961 26.0889 23.9596 26.3524 23.9596 26.6758V28.3877H28.1496C28.473 28.3877 28.7365 28.649 28.7365 28.9723V32.6573C28.7366 32.9806 28.4731 33.2442 28.1497 33.2442ZM19.1806 32.0727H22.786V27.2627H19.1806V32.0727ZM14.4038 32.0727H18.0091V26.6758V25.635H14.4038V32.0727ZM9.62461 32.0727H13.2323V29.5591H9.62461V32.0727ZM7.15313 11.6611H30.6921V9.06336V6.31289C30.6921 5.73047 30.9313 5.20125 31.3144 4.81805C31.6975 4.43492 32.2268 4.1957 32.8115 4.1957H34.7559C35.3383 4.1957 35.8676 4.43492 36.2507 4.81805C36.6338 5.20117 36.873 5.73047 36.873 6.31289V9.06336V11.6611H39.4153C39.7387 11.6611 39.9999 11.9246 39.9999 12.248V35.2195C39.9999 35.5429 39.7386 35.8042 39.4153 35.8042H23.1934C22.8701 35.8042 22.6088 35.5428 22.6088 35.2195C22.6088 34.8963 22.8702 34.6327 23.1934 34.6327H38.8285V12.8326H36.8731V17.0691C36.8731 17.3924 36.6095 17.6559 36.2862 17.6559C35.9628 17.6559 35.7015 17.3924 35.7015 17.0691V12.248V9.65031H31.8658V12.248V27.1431H35.7015V19.7243C35.7015 19.4009 35.9628 19.1374 36.2862 19.1374C36.6095 19.1374 36.8731 19.4009 36.8731 19.7243V27.7277C36.8731 27.8695 36.8354 27.9404 36.7734 28.0599L34.3063 32.9187C34.251 33.0272 34.1624 33.1202 34.045 33.18C33.7571 33.3262 33.4072 33.2088 33.261 32.9209L30.7851 28.0489C30.7275 27.9316 30.6921 27.8652 30.6921 27.7278V12.8326H7.15313V17.2661C7.15313 17.5895 6.8918 17.853 6.56844 17.853C6.24508 17.853 5.98156 17.5895 5.98156 17.2661V12.248V5.84117C5.47883 5.5268 4.91195 5.36734 4.31844 5.36734C3.45031 5.36734 2.66414 5.71945 2.09273 6.28859C1.52359 6.85992 1.17141 7.64609 1.17141 8.51422V28.5295C1.20242 28.4962 1.23344 28.463 1.26438 28.432C2.04617 27.6502 3.12688 27.1675 4.31836 27.1675C4.79453 27.1675 5.25516 27.2473 5.69141 27.3912C5.78891 27.4244 5.88633 27.462 5.98149 27.5019V19.9215C5.98149 19.5981 6.245 19.3346 6.56836 19.3346C6.89172 19.3346 7.15305 19.5981 7.15305 19.9215V28.5073C7.15305 28.6291 7.1132 28.7531 7.03344 28.8595C6.84078 29.1164 6.47313 29.1673 6.21406 28.9724C5.94609 28.7688 5.64266 28.607 5.31938 28.5007C5.00938 28.3966 4.67273 28.3391 4.31844 28.3391C3.45031 28.3391 2.66414 28.6913 2.09273 29.2604C1.52359 29.8295 1.17141 30.6179 1.17141 31.4859C1.17141 32.3563 1.52352 33.1424 2.09273 33.7116C2.66406 34.2807 3.45023 34.6328 4.31844 34.6328H20.5403C20.8637 34.6328 21.1249 34.8964 21.1249 35.2197C21.1249 35.5431 20.8636 35.8044 20.5403 35.8044H4.31844C3.12695 35.8044 2.04625 35.3216 1.26445 34.5398C0.482734 33.758 0 32.6795 0 31.4859V8.51414C0 7.32266 0.482734 6.24195 1.26445 5.46023C2.04625 4.67844 3.12695 4.19563 4.31844 4.19563C5.24188 4.19563 6.14984 4.4968 6.89172 5.04609C7.04899 5.15234 7.15305 5.33172 7.15305 5.53555L7.15313 11.6611ZM35.3338 28.3146H32.2313L33.7837 31.3685L35.3338 28.3146ZM27.503 15.211C27.8264 15.211 28.0877 15.4745 28.0877 15.7979C28.0877 16.1213 27.8263 16.3825 27.503 16.3825H19.5726C19.2492 16.3825 18.988 16.1212 18.988 15.7979C18.988 15.4745 19.2493 15.211 19.5726 15.211H27.503ZM24.2055 20.805C24.5311 20.805 24.7924 21.0663 24.7924 21.3896C24.7924 21.7129 24.5311 21.9765 24.2055 21.9765H19.5727C19.2493 21.9765 18.988 21.713 18.988 21.3896C18.988 21.0663 19.2494 20.805 19.5727 20.805H24.2055ZM27.503 18.008C27.8264 18.008 28.0877 18.2694 28.0877 18.5948C28.0877 18.9182 27.8263 19.1795 27.503 19.1795H19.5726C19.2492 19.1795 18.988 18.9181 18.988 18.5948C18.988 18.2694 19.2493 18.008 19.5726 18.008H27.503ZM9.68883 14.6507H16.4013C16.7246 14.6507 16.9859 14.9142 16.9859 15.2376V21.9499C16.9859 22.2733 16.7245 22.5368 16.4013 22.5368H9.68883C9.36328 22.5368 9.10195 22.2733 9.10195 21.9499V15.2376C9.10195 14.9142 9.36328 14.6507 9.68883 14.6507ZM15.8145 15.8245H10.2735V21.3653H15.8145V15.8245Z" fill="#C5AF94"/>
</g>
</g>
<defs>
<clipPath id="clip0_187_32">
<rect width="40" height="40" fill="white"/>
</clipPath>
</defs>
</svg>
