<svg width="40" height="40" viewBox="0 0 40 40" fill="none" xmlns="http://www.w3.org/2000/svg">
<g id="vase 1" clip-path="url(#clip0_206_577)">
<g id="Group">
<g id="Group_2">
<path id="Vector" d="M15.0975 31.2376C14.53 30.302 14.0257 29.3294 13.5881 28.3263C13.3479 27.677 13.2403 26.9862 13.2717 26.2947C13.2717 26.2283 13.2717 26.165 13.2717 26.1017C13.2906 25.6555 13.316 25.1017 12.5217 24.7948C12.1802 24.6756 11.8072 24.6834 11.4711 24.8169L11.335 24.0195C11.8846 23.846 12.3718 23.5161 12.7369 23.0702H12.7527C13.7386 22.3574 14.281 21.1816 14.183 19.969C13.9837 18.3868 12.0945 17.0957 12.0122 17.0387C11.8802 16.9499 11.7026 16.9729 11.5977 17.0925C11.5977 17.0925 11.5122 17.1906 11.4015 17.333C10.9762 17.0381 10.5298 16.7747 10.0661 16.545C9.95419 16.4924 9.822 16.5098 9.72746 16.5893C9.32565 16.9332 8.95114 17.3078 8.60724 17.7096C8.45218 17.5893 8.35408 17.5197 8.34143 17.5102C8.20939 17.4214 8.03186 17.4444 7.92688 17.564C7.86043 17.6368 6.36048 19.3709 6.55984 20.9405C6.76458 22.1208 7.56186 23.113 8.67053 23.567C9.18017 23.9544 9.80246 24.1644 10.4426 24.1651C10.5281 24.1651 10.6167 24.1651 10.7053 24.1651L10.873 25.1555C10.7412 25.246 10.6183 25.3488 10.5059 25.4625C10.126 25.9058 9.83964 26.4214 9.66417 26.9783L9.49962 27.4403C9.37304 27.8137 9.21165 28.282 9.0471 28.706C8.66104 29.6434 8.21825 30.5565 7.72119 31.4401C6.96805 32.842 6.31934 34.0571 6.31934 34.8926C6.31776 36.9828 7.57175 38.8695 9.49962 39.6772C9.53886 39.6932 9.58071 39.7017 9.62303 39.7025H13.3887C13.4311 39.7025 13.4731 39.6938 13.5121 39.6772C15.4418 38.8712 16.6975 36.9838 16.6956 34.8926C16.6956 34.0223 15.9551 32.7312 15.0975 31.2376ZM12.2812 25.3802C12.5976 25.5068 12.6419 25.6302 12.6324 25.9372C12.6123 26.4181 12.2855 26.8316 11.8223 26.9624L11.566 25.472C11.7841 25.3516 12.0398 25.3189 12.2812 25.3802ZM11.8793 17.7444H11.8919C12.3698 18.1209 13.4267 19.0576 13.5533 20.0544C13.5947 20.4349 13.5459 20.8197 13.4109 21.1778C13.4114 21.0635 13.404 20.9493 13.3887 20.836C13.2653 19.8677 12.2179 19.0703 11.3508 18.5671C11.5087 18.2815 11.6853 18.0067 11.8793 17.7444ZM9.96479 17.2159C10.3313 17.4059 10.6863 17.6172 11.0281 17.8488C10.9458 17.9754 10.8635 18.1083 10.7812 18.257C10.4901 18.1114 10.2686 18.0197 10.1926 17.988C10.0874 17.9437 9.96653 17.9594 9.87619 18.0292C9.8129 18.0766 9.62936 18.2159 9.38886 18.4216C9.28127 18.3076 9.17684 18.2064 9.07242 18.1051C9.35231 17.7916 9.65032 17.4947 9.96479 17.2159ZM7.50285 21.5797C7.5155 21.6725 7.53132 21.7611 7.55031 21.8455C7.35586 21.5491 7.23046 21.2127 7.18323 20.8614C7.05666 19.8646 7.84777 18.6937 8.21485 18.2095C8.46626 18.4098 8.7032 18.6276 8.92369 18.8614C8.20852 19.5639 7.37943 20.605 7.50285 21.5797ZM10.7338 23.5199C10.1214 23.5981 9.50318 23.4295 9.01546 23.0511L9.02178 23.0448C8.53295 22.6691 8.21596 22.1125 8.14206 21.5005C8.04713 20.7505 8.87622 19.779 9.58189 19.1208C9.77809 18.9405 9.96163 18.7822 10.1135 18.662C10.9363 19.0259 12.6198 19.9562 12.7432 20.9214C12.9058 22.1939 12.0062 23.3572 10.7338 23.5199ZM10.9553 25.896V25.8928L10.9932 25.858L11.1958 27.0479C11.1008 27.0479 11.0059 27.0479 10.9046 27.0479C10.6818 27.0544 10.4909 26.8896 10.4648 26.6681C10.5883 26.3875 10.7538 26.1271 10.9553 25.896ZM6.93957 34.9021C6.93957 34.2407 7.6136 32.9749 8.26548 31.7471V31.7439C8.77527 30.8366 9.22969 29.8993 9.6262 28.9371C9.79075 28.4972 9.94264 28.0225 10.0882 27.646C10.1167 27.5542 10.1483 27.4719 10.1736 27.3928C10.3624 27.5687 10.6088 27.6699 10.8667 27.6776H11.1135C11.1757 27.6809 11.238 27.6809 11.3002 27.6776L12.6419 35.5603H6.98704C6.95531 35.3423 6.93941 35.1223 6.93957 34.9021ZM13.3128 39.0791V39.076H9.67683C8.44047 38.5375 7.50561 37.4799 7.12311 36.1868H12.7527L13.0691 37.9779C13.0942 38.1327 13.2288 38.2457 13.3856 38.2437H13.4394C13.6114 38.2147 13.7275 38.0519 13.6989 37.8798L13.4109 36.1932H15.8823C15.4971 37.4891 14.5555 38.5466 13.3128 39.0791ZM13.2843 35.5539L11.9268 27.5953C12.1985 27.5256 12.4507 27.3946 12.6641 27.2124C12.7078 27.6812 12.8142 28.1421 12.9805 28.5826C13.4318 29.6102 13.9519 30.6061 14.5374 31.5636V31.5604C15.2811 32.8547 16.05 34.1964 16.05 34.8989C16.0486 35.118 16.0328 35.3369 16.0026 35.5539H13.2843Z" fill="#C5AF94"/>
</g>
</g>
<g id="Group_3">
<g id="Group_4">
<path id="Vector_2" d="M31.7518 3.9676C31.6817 3.88081 31.6056 3.79893 31.5241 3.72267C31.4117 3.61658 31.2392 3.60725 31.1159 3.70052C30.0535 4.50643 29.8456 6.02094 30.6514 7.08332C30.6894 7.1334 30.7292 7.1819 30.771 7.22881L30.0622 10.3648L28.1825 12.5135L28.154 12.5483L26.3281 15.3235L24.6858 11.9154C24.7807 11.6033 24.9514 11.3196 25.1826 11.0894C25.2562 11.1166 25.3326 11.1356 25.4104 11.1464H25.5243C25.7542 11.1488 25.9777 11.0716 26.1572 10.9281C26.3662 10.7637 26.4998 10.5217 26.5275 10.2572C26.5612 9.7042 26.1402 9.22859 25.5872 9.19489C25.0753 9.16364 24.6223 9.52367 24.537 10.0294C24.5132 10.2594 24.5691 10.4907 24.6953 10.6844C24.5571 10.8316 24.4361 10.994 24.3345 11.1686L23.1004 8.63699L21.7745 3.63715C21.7661 3.61247 21.7544 3.58905 21.7396 3.56753C22.5429 2.50973 22.3367 1.00108 21.2789 0.197703C21.2065 0.14272 21.131 0.0919306 21.053 0.0454922C20.92 -0.0348059 20.7483 -0.00664224 20.6479 0.111946C19.7827 1.12204 19.9001 2.64225 20.9102 3.50749C20.9876 3.57378 21.0691 3.63501 21.1542 3.69095C21.1495 3.72663 21.1495 3.76286 21.1542 3.79854L22.4833 8.82686C22.4868 8.84672 22.4932 8.86586 22.5023 8.88382L25.9294 15.9406L25.6129 16.4184C25.5972 16.442 25.5844 16.4675 25.575 16.4943L25.4357 16.9469L22.3567 14.0039L20.6321 11.7034C20.5938 11.6554 20.5436 11.6183 20.4865 11.5958L17.8885 10.6464C17.8209 10.6228 17.7473 10.6228 17.6797 10.6464L16.9582 10.8901C16.7235 10.4874 16.4038 10.1407 16.0215 9.87429C16.0419 9.81045 16.0557 9.74471 16.0626 9.6781C16.1235 9.1274 15.7263 8.63177 15.1756 8.57093C14.9144 8.54206 14.6522 8.61698 14.4456 8.77939C14.0117 9.12107 13.9369 9.74977 14.2786 10.1837C14.2805 10.1861 14.2823 10.1884 14.2842 10.1907C14.4483 10.4006 14.6902 10.5353 14.9551 10.5641H15.069C15.2747 10.5634 15.4751 10.498 15.6417 10.3774C15.9193 10.5736 16.1549 10.8232 16.3348 11.1116L14.3285 11.773L11.7621 11.1401L8.8255 9.18128H8.79702C8.5176 7.87736 7.2341 7.04693 5.93018 7.32635C5.88984 7.33498 5.84965 7.34471 5.80978 7.35539C5.66025 7.39494 5.56121 7.53679 5.57561 7.69082C5.68921 9.01419 6.85413 9.99494 8.1775 9.88134C8.32275 9.86884 8.46657 9.8432 8.60715 9.80468L11.4552 11.7034C11.4865 11.7232 11.5206 11.7382 11.5564 11.7477L14.262 12.409C14.3199 12.4259 14.3814 12.4259 14.4392 12.409L17.7588 11.2856L20.1637 12.1527L21.8757 14.3995L21.9074 14.4374L25.23 17.6019L25.0623 18.1525H23.0624C22.8876 18.1525 22.7459 18.2942 22.7459 18.469V21.4847C22.741 21.7779 22.5355 22.0293 22.2491 22.0923C20.3273 22.5597 18.9751 24.2819 18.9771 26.2598V35.7057C18.9788 38.0766 20.9004 39.9982 23.2712 39.9999H25.9231C28.2939 39.9982 30.2155 38.0766 30.2172 35.7057V26.2598C30.2177 24.2814 28.8645 22.5595 26.942 22.0923C26.6556 22.0293 26.4501 21.7779 26.4452 21.4847V18.469C26.4452 18.2942 26.3035 18.1525 26.1287 18.1525H25.7269L26.1762 16.7285L27.0591 15.3836C27.508 15.8111 28.1038 16.05 28.7236 16.0513H28.8407C29.5519 16.0174 30.2115 15.6697 30.6413 15.102C30.7354 14.9795 30.7274 14.807 30.6223 14.6938C30.1344 14.1691 29.4391 13.8875 28.7236 13.9248C28.4288 13.9391 28.1391 14.0078 27.8692 14.1273L28.6698 12.9122L30.5875 10.7192C30.622 10.6789 30.6469 10.6313 30.6602 10.58L31.3912 7.35855C32.4272 6.52179 32.5887 5.00356 31.7518 3.9676ZM25.5215 9.77058C25.5383 9.77129 25.5552 9.77319 25.5718 9.7762C25.7749 9.79985 25.9204 9.98371 25.8966 10.1869C25.8852 10.2845 25.8356 10.3735 25.7585 10.4344C25.6827 10.4948 25.5857 10.5222 25.4895 10.5103C25.2853 10.5015 25.1268 10.3288 25.1356 10.1244C25.1444 9.92026 25.3172 9.7618 25.5215 9.77058ZM21.3251 3.04231C21.002 2.76621 20.7886 2.38331 20.7239 1.96323C20.6554 1.54639 20.7349 1.1188 20.9485 0.75441C21.6198 1.32053 21.7795 2.29083 21.3251 3.04231ZM15.4297 9.59907C15.405 9.7989 15.225 9.94233 15.0247 9.92184L15.0278 9.91551C14.9309 9.90412 14.8423 9.85531 14.781 9.77944C14.7201 9.70262 14.6927 9.60452 14.7051 9.5073C14.7292 9.32384 14.8871 9.18769 15.0721 9.19085H15.1133C15.3111 9.2202 15.4505 9.40018 15.4297 9.59907ZM6.96164 8.92504C6.61244 8.68319 6.36197 8.32371 6.25596 7.91241C6.67976 7.87072 7.10435 7.98306 7.45213 8.22886C7.80085 8.47181 8.05211 8.83066 8.16097 9.24148C7.73622 9.28302 7.3106 9.17076 6.96164 8.92504ZM19.61 26.2599C19.6092 24.5741 20.7626 23.1068 22.401 22.7094C22.9709 22.5763 23.3752 22.07 23.3788 21.4848V18.7855H24.8661L23.7016 22.4879L21.6416 31.6648H19.61V26.2599ZM25.8123 18.7792V21.4784C25.8163 22.0646 26.2222 22.5712 26.7933 22.7031C28.4317 23.1005 29.585 24.5677 29.5843 26.2536V31.6553H28.0021C27.8273 31.6553 27.6857 31.797 27.6857 31.9718C27.6857 32.1465 27.8273 32.2882 28.0021 32.2882H29.5843V35.6995C29.5861 37.7233 27.9469 39.3654 25.9231 39.3671H23.2712C21.2499 39.3654 19.6117 37.7272 19.61 35.7058V32.2945H21.5086L20.4865 36.8514C20.4475 37.0217 20.5539 37.1915 20.7243 37.2305C20.7252 37.2307 20.7262 37.2309 20.727 37.2311C20.7501 37.2344 20.7735 37.2344 20.7966 37.2311C20.9475 37.2348 21.0799 37.1315 21.1131 36.9843L22.1668 32.2882H26.1731C26.3478 32.2882 26.4895 32.1465 26.4895 31.9718C26.4895 31.797 26.3478 31.6553 26.1731 31.6553H22.2903L24.3124 22.6461L25.5275 18.7792H25.8123ZM28.7679 14.5609C29.193 14.5391 29.6115 14.673 29.9451 14.9375C29.3075 15.5415 28.3242 15.5886 27.6319 15.0483C27.9395 14.7542 28.3429 14.5812 28.7679 14.5609ZM31.6697 5.57704C31.6428 6.0014 31.4669 6.40265 31.1729 6.70992C30.9118 6.37385 30.7814 5.95448 30.8058 5.52957C30.8285 5.10601 31.0012 4.70444 31.2931 4.3967H31.2995C31.5601 4.73316 31.6915 5.15198 31.6697 5.57704Z" fill="#C5AF94"/>
</g>
</g>
<g id="Group_5">
<g id="Group_6">
<path id="Vector_3" d="M17.578 7.091C17.4535 7.0266 17.3236 6.9732 17.1897 6.93135C17.0416 6.8857 16.8822 6.95397 16.8132 7.09274C16.1997 8.27672 16.6622 9.73387 17.8462 10.3473C17.9706 10.4118 18.1003 10.4653 18.234 10.5072C18.2655 10.5119 18.2974 10.5119 18.3289 10.5072C18.4474 10.5074 18.5561 10.4415 18.6106 10.3363C19.2216 9.15501 18.7593 7.70205 17.578 7.091ZM18.1517 9.78893C17.7726 9.59669 17.4743 9.27589 17.31 8.8839C17.1517 8.49356 17.136 8.05995 17.2657 7.65925C17.6402 7.84952 17.9359 8.16541 18.1011 8.55163C18.2645 8.94489 18.2825 9.38357 18.1517 9.78893Z" fill="#C5AF94"/>
</g>
</g>
<g id="Group_7">
<g id="Group_8">
<path id="Vector_4" d="M27.6473 8.01794C27.5174 7.97688 27.3843 7.94682 27.2494 7.92815C27.0891 7.89706 26.9315 7.99302 26.8855 8.14966C26.4819 9.41877 27.1837 10.7747 28.4529 11.1782C28.5857 11.2205 28.722 11.2511 28.8601 11.2698H28.9044C29.0479 11.2764 29.1779 11.1854 29.2209 11.0483C29.6231 9.77699 28.9187 8.42022 27.6473 8.01794ZM28.6608 10.5706C27.8216 10.3103 27.2968 9.47794 27.4235 8.60859C28.2661 8.86428 28.7931 9.69993 28.6608 10.5706Z" fill="#C5AF94"/>
</g>
</g>
<g id="Group_9">
<g id="Group_10">
<path id="Vector_5" d="M21.5307 6.13082C21.2773 5.4681 20.7448 4.95071 20.0751 4.71631C19.4023 4.48356 18.661 4.55998 18.0498 4.92516C17.9173 5.00427 17.8612 5.16732 17.9169 5.31122C18.3961 6.55375 19.7919 7.17256 21.0344 6.6933C21.1603 6.64473 21.2819 6.58571 21.3978 6.51688C21.5303 6.43777 21.5865 6.27464 21.5307 6.13082ZM19.5878 6.12765C19.1885 5.98652 18.8521 5.70844 18.6384 5.34287C19.4549 5.01685 20.387 5.33875 20.8282 6.09917C20.4316 6.25724 19.9913 6.26736 19.5878 6.12765Z" fill="#C5AF94"/>
</g>
</g>
<g id="Group_11">
<g id="Group_12">
<path id="Vector_6" d="M33.6067 11.773C32.7016 10.7962 31.1759 10.738 30.199 11.6431C30.0974 11.7373 30.0041 11.8401 29.9201 11.9503V11.9439C29.8259 12.0664 29.8339 12.2389 29.9391 12.3521C30.3955 12.8445 31.0366 13.1244 31.708 13.1243H31.8219C32.5337 13.0891 33.1937 12.7418 33.6256 12.1749C33.7162 12.0537 33.7083 11.8852 33.6067 11.773ZM30.6131 12.1148C31.2522 11.5117 32.2357 11.4646 32.9295 12.0041C32.2903 12.6072 31.3069 12.6542 30.6131 12.1148Z" fill="#C5AF94"/>
</g>
</g>
<g id="Group_13">
<g id="Group_14">
<path id="Vector_7" d="M16.9219 12.6994C16.9041 12.5646 16.8749 12.4314 16.8346 12.3015C16.7894 12.1531 16.6434 12.0594 16.4897 12.08C15.1686 12.2483 14.2341 13.4557 14.4024 14.7768C14.4199 14.9139 14.4491 15.0491 14.4897 15.1812C14.5315 15.3195 14.6618 15.412 14.8062 15.4058H14.8473C16.1676 15.2313 17.0964 14.0196 16.9219 12.6994ZM16.0182 13.9882C15.7869 14.3451 15.4355 14.6078 15.0277 14.7287C14.9121 13.8559 15.4492 13.0289 16.2935 12.7793C16.3485 13.2022 16.2509 13.6308 16.0182 13.9882Z" fill="#C5AF94"/>
</g>
</g>
<g id="Group_15">
<g id="Group_16">
<path id="Vector_8" d="M17.9891 11.8575C17.8707 11.8187 17.749 11.7905 17.6256 11.773C17.4726 11.75 17.3253 11.841 17.2775 11.9882C16.9135 13.1012 17.5205 14.2984 18.6334 14.6626C18.7465 14.6995 18.8624 14.727 18.98 14.7445L19.0275 14.7508C19.1701 14.7578 19.2998 14.6683 19.3439 14.5325C19.7085 13.4197 19.1019 12.2221 17.9891 11.8575ZM18.7901 14.0641V14.0483C18.4724 13.9366 18.2031 13.7186 18.0275 13.4312C17.8533 13.1471 17.7788 12.8131 17.8155 12.4819C18.4712 12.7154 18.8765 13.3734 18.7901 14.0641Z" fill="#C5AF94"/>
</g>
</g>
<g id="Group_17">
<g id="Group_18">
<path id="Vector_9" d="M34.2014 6.93459C33.085 6.58722 31.8984 7.21054 31.551 8.32696C31.5153 8.44167 31.4894 8.55915 31.4737 8.67821C31.4526 8.83105 31.5449 8.97678 31.692 9.02314C31.8972 9.08579 32.1105 9.11775 32.3249 9.11807C33.3863 9.11483 34.2822 8.3283 34.423 7.27636C34.442 7.12375 34.3485 6.97953 34.2014 6.93459ZM33.1224 8.25101C32.8406 8.43146 32.5058 8.51065 32.173 8.47569C32.3977 7.8208 33.0444 7.40752 33.7331 7.47888C33.6231 7.7981 33.4077 8.0704 33.1224 8.25101Z" fill="#C5AF94"/>
</g>
</g>
<g id="Group_19">
<g id="Group_20">
<path id="Vector_10" d="M10.724 11.542C10.6962 11.3898 10.5623 11.28 10.4076 11.2826C9.07423 11.2993 8.00686 12.3938 8.02363 13.7272C8.02529 13.8625 8.03843 13.9974 8.06271 14.1306C8.09056 14.2828 8.22442 14.3926 8.37916 14.3901C9.71424 14.3712 10.7813 13.2736 10.7625 11.9386C10.7606 11.8055 10.7478 11.6729 10.724 11.542ZM8.6608 13.7192C8.65249 13.2971 8.79623 12.886 9.06585 12.561C9.33308 12.228 9.71195 12.0032 10.1323 11.9281C10.1503 12.8062 9.52572 13.5664 8.6608 13.7192Z" fill="#C5AF94"/>
</g>
</g>
<g id="Group_21">
<g id="Group_22">
<path id="Vector_11" d="M25.8281 5.41565C25.8058 5.25838 25.6705 5.14193 25.5116 5.14351C24.1767 5.11534 23.0717 6.17465 23.0435 7.50957C23.0407 7.6443 23.0491 7.77911 23.0687 7.91241C23.0923 8.06842 23.2273 8.18321 23.3851 8.18139H23.4389C24.7707 8.1836 25.852 7.10587 25.8543 5.77411C25.8545 5.65409 25.8457 5.53432 25.8281 5.41565ZM23.6857 7.5485C23.6916 7.12256 23.8499 6.71276 24.1319 6.39347C24.4132 6.0752 24.7995 5.86856 25.2205 5.81121C25.2071 6.68943 24.5556 7.4269 23.6857 7.5485Z" fill="#C5AF94"/>
</g>
</g>
<g id="Group_23">
<g id="Group_24">
<path id="Vector_12" d="M13.4778 8.8396C13.1758 8.19468 12.6051 7.7155 11.9177 7.52951C11.7684 7.48924 11.6118 7.56282 11.5475 7.70356C10.9893 8.91459 11.5185 10.3488 12.7296 10.907C12.8525 10.9637 12.9801 11.0099 13.1107 11.0452L13.1076 11.0579C13.1359 11.0625 13.1647 11.0625 13.193 11.0579C13.3155 11.0569 13.4264 10.9855 13.4778 10.8743C13.7784 10.2293 13.7784 9.48451 13.4778 8.8396ZM13.0032 10.3522C12.2035 9.98869 11.7863 9.09805 12.019 8.25101C12.8227 8.61041 13.2415 9.50461 13.0032 10.3522Z" fill="#C5AF94"/>
</g>
</g>
<g id="Group_25">
<g id="Group_26">
<path id="Vector_13" d="M12.8243 12.4676C12.2721 12.4056 11.7741 12.803 11.712 13.3553C11.6473 13.9055 12.0409 14.404 12.5911 14.4687C12.5924 14.4688 12.5937 14.469 12.5949 14.4692H12.7088C12.9387 14.4715 13.1622 14.3944 13.3417 14.2508C13.5507 14.0864 13.6843 13.8444 13.712 13.5799C13.774 13.0277 13.3766 12.5297 12.8243 12.4676ZM13.0749 13.5159C13.0635 13.6135 13.0138 13.7025 12.9368 13.7634C12.861 13.8238 12.764 13.8512 12.6678 13.8393C12.4635 13.8305 12.3051 13.6578 12.3138 13.4534C12.3227 13.2492 12.4954 13.0907 12.6997 13.0995C12.7166 13.1002 12.7334 13.1021 12.7501 13.1051C12.9531 13.1289 13.0985 13.3128 13.0749 13.5159Z" fill="#C5AF94"/>
</g>
</g>
<g id="Group_27">
<g id="Group_28">
<path id="Vector_14" d="M21.7938 7.65925C21.4512 7.22604 20.8223 7.15246 20.3891 7.49502C20.3879 7.49596 20.3868 7.49691 20.3856 7.49786V7.48521C19.952 7.83005 19.88 8.46112 20.225 8.89473C20.3903 9.10256 20.6313 9.23634 20.895 9.26679H21.0121C21.5677 9.25295 22.0069 8.79133 21.993 8.23574C21.9879 8.02759 21.9182 7.82618 21.7938 7.65925ZM21.2368 8.55796C21.1617 8.61982 21.0645 8.64838 20.9678 8.63707C20.7648 8.61302 20.6197 8.42885 20.6437 8.22585C20.655 8.1302 20.7032 8.04278 20.778 7.98203C20.843 7.92847 20.9247 7.89935 21.009 7.89975H21.0501C21.2488 7.9276 21.3891 8.1086 21.3666 8.30796L21.376 8.31113C21.3649 8.40883 21.3147 8.49783 21.2368 8.55796Z" fill="#C5AF94"/>
</g>
</g>
</g>
<defs>
<clipPath id="clip0_206_577">
<rect width="40" height="40" fill="white"/>
</clipPath>
</defs>
</svg>
