<svg width="76" height="75" viewBox="0 0 76 75" fill="none" xmlns="http://www.w3.org/2000/svg">
<g id="partnership 1">
<path id="Vector" fill-rule="evenodd" clip-rule="evenodd" d="M22.1688 22.2512C23.6846 23.1263 25.3411 23.542 26.977 23.542C30.1813 23.542 33.3057 21.9465 35.1293 19.0823H45.8323C46.1632 19.0823 46.4787 18.9424 46.701 18.697L48.0271 17.2328L49.3533 18.697C49.5756 18.9422 49.8909 19.0821 50.2219 19.0821C50.5528 19.0821 50.8683 18.9422 51.0905 18.697L52.4166 17.2328L53.7428 18.697C53.965 18.9424 54.2803 19.0823 54.6114 19.0823H56.1038C56.4001 19.0823 56.6853 18.9701 56.9023 18.7681L61.2155 14.7526C61.4537 14.531 61.5889 14.2203 61.5889 13.895C61.5889 13.5696 61.4537 13.2589 61.2155 13.0373L56.9023 9.02201C56.6855 8.82015 56.4001 8.7078 56.1038 8.7078H35.1305C34.3008 7.40467 33.1667 6.31776 31.8176 5.53875C27.2099 2.87874 21.2972 4.46297 18.6369 9.07049C15.9767 13.678 17.5611 19.5909 22.1688 22.2512ZM20.6667 10.2424C22.6809 6.75399 27.1576 5.55457 30.6458 7.56844C31.8249 8.24916 32.7866 9.23998 33.427 10.4337C33.631 10.8141 34.0279 11.0515 34.4596 11.0515H55.6427L58.6971 13.895L55.6427 16.7385H55.131L53.2851 14.7005C53.0629 14.4551 52.7475 14.3152 52.4165 14.3152C52.0854 14.3152 51.7701 14.4551 51.548 14.7003L50.2217 16.1646L48.8954 14.7003C48.6732 14.4551 48.3578 14.3152 48.0269 14.3152C47.696 14.3152 47.3805 14.4553 47.1583 14.7005L45.3124 16.7385H34.4584C34.0274 16.7385 33.6312 16.9751 33.4267 17.3546C33.392 17.4191 33.3565 17.4834 33.3195 17.5477C31.3055 21.0361 26.8289 22.2358 23.3404 20.2216C19.8523 18.2073 18.6527 13.7307 20.6667 10.2424ZM24.9423 17.5872C26.9782 17.5871 28.6345 15.9308 28.6346 13.8948C28.6346 11.859 26.9782 10.2025 24.9422 10.2025C22.9063 10.2025 21.2499 11.8588 21.2499 13.8948C21.2499 15.9308 22.9063 17.5872 24.9423 17.5872ZM24.9422 12.5464C25.6859 12.5464 26.2909 13.1513 26.2909 13.8948C26.2909 14.6385 25.6859 15.2435 24.9422 15.2435C24.1985 15.2435 23.5936 14.6385 23.5936 13.8948C23.5936 13.1513 24.1986 12.5464 24.9422 12.5464ZM14.0536 26.8727C14.089 26.1062 14.7392 25.5137 15.5058 25.5491C16.2724 25.5847 16.8649 26.2348 16.8293 27.0014C16.7938 27.7679 16.1436 28.3604 15.377 28.3248C14.6106 28.2894 14.018 27.6393 14.0536 26.8727ZM74.1124 45.9595L65.7164 24.3021C65.407 23.5037 64.8032 22.873 64.0163 22.5257C63.2294 22.1784 62.3565 22.1577 61.5581 22.4672L57.389 24.0834C55.7367 24.724 54.9136 26.5893 55.5542 28.2416L56.1931 29.8897L53.8718 31.1322C52.5991 31.7946 51.3392 31.3373 49.2225 30.472C46.3825 29.3111 42.5351 27.7421 37.5275 30.8381C33.9028 28.7085 30.7958 29.435 28.2715 30.0263C26.3373 30.4793 24.8099 30.837 23.3473 30.0141C23.3199 29.9987 23.292 29.9844 23.2635 29.9713L20.6014 28.7432L21.3057 27.1496C22.022 25.5287 21.2861 23.6272 19.6652 22.9108L15.5754 21.1032C13.9544 20.3867 12.0529 21.1226 11.3366 22.7435L1.94663 43.9889C1.60048 44.772 1.58071 45.645 1.89125 46.4472C2.20165 47.2492 2.80385 47.8815 3.58696 48.2277L7.6768 50.0354C8.09794 50.2216 8.53798 50.3097 8.97143 50.3097C10.2057 50.3095 11.3853 49.5947 11.9156 48.3951L12.3663 47.3751C14.1152 48.1546 14.5922 48.3531 14.7932 48.431C15.3039 48.6293 15.4714 49.3454 15.6863 50.5008C15.8048 51.1379 15.9283 51.7897 16.1792 52.3861L15.0571 54.4839C14.4954 55.5343 14.3771 56.744 14.7245 57.8899C15.0719 59.036 15.8417 59.9766 16.8921 60.5384C17.5837 60.9082 18.3419 61.0807 19.0967 61.0628C18.997 61.7149 19.044 62.3876 19.2416 63.0396C19.5889 64.1857 20.3587 65.1263 21.4091 65.688C22.7815 66.4219 24.371 66.3624 25.6506 65.6699C26.0506 66.529 26.7205 67.2598 27.5913 67.7256C28.8214 68.3835 30.2452 68.4071 31.4588 67.8907C31.8347 68.87 32.552 69.7087 33.5243 70.2286C34.1793 70.579 34.8962 70.7568 35.6212 70.7568C36.0586 70.7568 36.4991 70.6921 36.9305 70.5614C37.892 70.2701 38.7079 69.6805 39.2777 68.878L40.427 69.5382C41.0777 69.9121 41.8011 70.1025 42.5376 70.1025C42.9307 70.1025 43.3277 70.0481 43.7191 69.9384C44.8528 69.6207 45.8269 68.8496 46.3917 67.8229C46.7792 67.1183 46.9504 66.3501 46.9279 65.5959C47.6237 65.7469 48.3523 65.7236 49.0595 65.52C50.1912 65.1942 51.1254 64.4495 51.6899 63.4231C52.1017 62.6747 52.2678 61.8532 52.2158 61.0528C53.9543 61.2834 55.7379 60.4496 56.6322 58.8235C57.2383 57.7218 57.3126 56.4622 56.9412 55.3437C56.9883 55.3319 57.0351 55.3193 57.0819 55.306C58.2183 54.9808 59.1561 54.2347 59.7224 53.2051C60.1998 52.3372 60.3578 51.338 60.1941 50.3765L63.5865 48.961L63.9502 49.8992C64.4433 51.171 65.662 51.9515 66.9505 51.9515C67.3361 51.9515 67.7279 51.8816 68.1085 51.7341L72.2776 50.1178C73.9299 49.4773 74.753 47.6119 74.1124 45.9595ZM8.62426 47.8918L4.53456 46.0842C4.32392 45.9912 4.16147 45.8196 4.07695 45.6014C3.99243 45.3831 3.99726 45.147 4.09028 44.9365L13.4802 23.691C13.6238 23.3662 13.9431 23.1725 14.2774 23.1725C14.3947 23.1725 14.5138 23.1964 14.6279 23.2468L18.7176 25.0544C19.1565 25.2484 19.3557 25.7633 19.1619 26.2021L10.7013 45.345C10.7011 45.3452 10.7011 45.3454 10.701 45.3456C10.7008 45.3459 10.7008 45.3462 10.7007 45.3463L9.77197 47.4475C9.57787 47.8865 9.06313 48.0857 8.62426 47.8918ZM17.9974 58.4719C17.4989 58.2055 17.1331 57.7574 16.9674 57.2104C16.8016 56.6636 16.8573 56.0877 17.1237 55.5894L19.1597 51.783C19.713 50.7482 21.0064 50.3567 22.043 50.91C23.0203 51.4316 23.4302 52.6231 22.989 53.6368L20.3106 58.2721C19.649 58.785 18.7396 58.8689 17.9974 58.4719ZM22.5142 63.6216C22.0159 63.355 21.6501 62.907 21.4843 62.3601C21.3184 61.8132 21.3741 61.2374 21.6406 60.7392L22.2472 59.6051L24.9552 54.9182C25.6175 54.3964 26.533 54.3084 27.2826 54.7084C28.1004 55.145 28.541 56.0968 28.3623 57.0055L25.4035 62.7353C24.8445 63.7773 23.5488 64.1747 22.5142 63.6216ZM28.6964 65.6592C27.9567 65.2635 27.5225 64.4644 27.5782 63.6321L30.4369 58.096C31.0925 57.4543 32.122 57.2976 32.9368 57.7325C33.7544 58.1687 34.1947 59.1197 34.017 60.0279L31.3931 65.0712C30.7633 65.8962 29.6166 66.1512 28.6964 65.6592ZM36.2503 68.3186C35.7034 68.4841 35.1277 68.4288 34.6293 68.1623C33.8632 67.7526 33.4302 66.9248 33.5169 66.0667L36.0898 61.1218C36.7454 60.4783 37.7758 60.321 38.5904 60.7563C38.8711 60.9063 39.1076 61.1108 39.2941 61.3644C39.7816 62.0274 39.8483 62.9202 39.4639 63.6389L37.5118 67.2888C37.2452 67.7872 36.7973 68.1529 36.2503 68.3186ZM44.3379 66.6935C44.0743 67.1727 43.6182 67.5327 43.0863 67.6818C42.5723 67.826 42.0423 67.7636 41.5941 67.5061L40.4155 66.8291L41.5306 64.7439C41.8142 64.2137 41.9787 63.6387 42.0322 63.0561L43.3794 63.816C43.4272 63.8536 43.4774 63.8891 43.5321 63.9197C44.5145 64.4705 44.8761 65.7148 44.3379 66.6935ZM57.6685 52.0757C57.4056 52.5538 56.9682 52.9007 56.4369 53.0527C55.9178 53.2013 55.378 53.1411 54.9162 52.8832C54.9161 52.8832 54.9162 52.8832 54.9161 52.8832C54.9154 52.8828 54.9146 52.8824 54.9139 52.8819C54.9136 52.8818 54.9132 52.8816 54.9127 52.8813C52.0799 51.2946 49.7197 49.9704 47.2917 48.5803C46.73 48.259 46.0141 48.4533 45.6926 49.015C45.371 49.5767 45.5657 50.2927 46.1273 50.6142C48.5638 52.0089 50.9283 53.3357 53.766 54.9251C53.7662 54.9251 53.7662 54.9252 53.7663 54.9254C54.7494 55.4788 55.1137 56.7205 54.5783 57.6938C54.0379 58.6764 52.799 59.036 51.8162 58.4961L41.7817 52.8498C41.2178 52.5326 40.5032 52.7324 40.1858 53.2965C39.8683 53.8604 40.0684 54.575 40.6324 54.8924L48.647 59.4022C48.7013 59.4477 48.7599 59.4893 48.824 59.5253C49.8069 60.0786 50.1712 61.3204 49.6358 62.2935C49.3739 62.7698 48.9388 63.1156 48.4107 63.2677C47.8889 63.418 47.3445 63.3576 46.8779 63.0983L41.0572 59.8153C40.6832 59.3518 40.2263 58.973 39.695 58.6892C38.5986 58.1032 37.3513 58.013 36.2307 58.3698C35.9054 57.2381 35.1372 56.25 34.0403 55.6647C32.9439 55.0795 31.6967 54.9897 30.5765 55.3459C30.2512 54.2142 29.483 53.2259 28.3862 52.6405C27.4733 52.1532 26.4436 52.0102 25.4689 52.1895C25.2808 50.8099 24.4548 49.5406 23.1463 48.8422C21.3798 47.8993 19.2576 48.2649 17.8996 49.5988C17.6473 48.3446 17.2036 46.8525 15.6413 46.246C15.4525 46.1726 14.8835 45.9308 13.3138 45.2312L19.6538 30.887L22.241 32.0806C24.4843 33.3207 26.6809 32.8059 28.806 32.308C30.957 31.8043 33.0086 31.325 35.4079 32.3791C34.8612 32.8371 34.315 33.3403 33.7736 33.8876C31.6919 35.9913 29.0508 37.9833 25.9235 39.8085C25.5303 40.038 25.2666 40.4105 25.1805 40.8588C25.0951 41.3054 25.2017 41.7487 25.4798 42.1057C27.5991 44.8326 29.8939 45.7163 32.1598 45.7162C34.4789 45.7161 36.7677 44.7897 38.8037 43.9654C41.5273 42.8627 43.8795 41.9105 45.7626 42.9838L56.8509 49.3039C57.2242 49.5167 57.52 49.8321 57.7063 50.2162V50.2164C57.9997 50.821 57.986 51.4987 57.6685 52.0757ZM59.2008 48.2514C58.8677 47.86 58.4669 47.5275 58.0117 47.2681L46.9233 40.948C44.0531 39.3122 40.9377 40.5736 37.9243 41.7933C34.1962 43.3024 30.946 44.618 27.911 41.3527C30.867 39.5548 33.3967 37.6008 35.4395 35.5364C36.3609 34.6052 37.2885 33.8183 38.1986 33.1957C38.2003 33.1946 38.2021 33.1933 38.204 33.1919C38.2044 33.1915 38.205 33.1912 38.2056 33.1908C42.4895 30.2518 45.4616 31.4666 48.3357 32.6416C50.4593 33.5095 52.6551 34.4073 54.9656 33.2051L57.0466 32.0913L62.7391 46.775L59.2008 48.2514ZM71.9097 47.4715C71.8153 47.6855 71.645 47.8495 71.4304 47.9325L67.2614 49.5488C66.8138 49.7221 66.3089 49.4993 66.1353 49.0519L57.7393 27.3944C57.5658 26.947 57.7888 26.4419 58.2362 26.2685L62.4054 24.6523C62.5056 24.6135 62.6103 24.5942 62.7155 24.5942C62.8356 24.5942 62.956 24.6195 63.0701 24.6699C63.2843 24.7644 63.4481 24.9346 63.5311 25.1492L71.9272 46.8066C72.0104 47.0214 72.0041 47.2575 71.9097 47.4715ZM62.8112 28.301C62.8112 29.0662 62.1871 29.6904 61.4218 29.6904C60.6565 29.6904 60.0323 29.0663 60.0323 28.301C60.0323 27.5357 60.6564 26.9116 61.4218 26.9116C62.1871 26.9117 62.8112 27.5359 62.8112 28.301Z" fill="#8A8987"/>
</g>
</svg>
