<svg width="76" height="75" viewBox="0 0 76 75" fill="none" xmlns="http://www.w3.org/2000/svg">
<g id="plan 1" clip-path="url(#clip0_594_810)">
<g id="Group">
<path id="Vector" d="M67.4402 15.8974V11.8366C67.4402 11.3508 67.2368 10.9064 66.917 10.5868C66.5931 10.2629 66.1529 10.0637 65.6672 10.0637H62.0215C61.5314 10.0637 61.0913 10.2629 60.7674 10.5868C60.4477 10.9065 60.2483 11.3508 60.2483 11.8366V15.8976L67.4402 15.8974ZM21.5151 35.6416C21.0875 35.2099 21.0875 34.5163 21.5151 34.0886C21.9428 33.6569 22.6404 33.6569 23.0681 34.0886L24.0689 35.0894L26.8468 32.3073C27.2745 31.8796 27.9721 31.8796 28.3998 32.3073C28.8317 32.7392 28.8317 33.4326 28.3998 33.8645L24.8455 37.4189C24.4177 37.8466 23.7201 37.8466 23.2924 37.4189L21.5151 35.6416ZM62.744 22.9647C62.744 22.3584 63.234 21.8643 63.8444 21.8643C64.4506 21.8643 64.9405 22.3584 64.9405 22.9647V46.0225C64.9405 46.6287 64.4505 47.1229 63.8444 47.1229C63.234 47.1229 62.744 46.6287 62.744 46.0225V22.9647ZM45.4244 60.1363H52.1845V55.4233H45.4244V60.1363ZM53.2806 62.3328C41.3385 62.3328 29.392 62.3328 17.4498 62.3328C16.8435 62.3328 16.3495 61.8386 16.3495 61.2323V54.3229C16.3495 53.7166 16.8435 53.2267 17.4498 53.2267H25.3103V46.965C25.3103 46.3588 25.8003 45.869 26.4065 45.869H35.3672C35.9735 45.869 36.4635 46.359 36.4635 46.965V48.9166H44.3239C44.9302 48.9166 45.4242 49.4107 45.4242 50.017V53.2267H53.2805C53.8868 53.2267 54.3809 53.7167 54.3809 54.3229V61.2323C54.381 61.8386 53.8869 62.3328 53.2806 62.3328ZM36.4637 60.1363H43.2238V51.1174H36.4637V60.1363ZM27.507 60.1363H34.267V50.017V48.0655H27.507V60.1363ZM18.5461 60.1363H25.3105V55.4233H18.5461V60.1363ZM13.9121 21.8645H58.0477V16.9937V11.8366C58.0477 10.7445 58.4961 9.75225 59.2144 9.03374C59.9328 8.31538 60.9252 7.86685 62.0215 7.86685H65.6672C66.7592 7.86685 67.7517 8.31538 68.47 9.03374C69.1884 9.7521 69.6368 10.7445 69.6368 11.8366V16.9937V21.8645H74.4037C75.01 21.8645 75.4998 22.3585 75.4998 22.9648V66.0365C75.4998 66.6428 75.0098 67.1328 74.4037 67.1328H43.9877C43.3814 67.1328 42.8915 66.6427 42.8915 66.0365C42.8915 65.4304 43.3815 64.9361 43.9877 64.9361H73.3034V24.061H69.6369V32.0044C69.6369 32.6107 69.1427 33.1048 68.5365 33.1048C67.9302 33.1048 67.4402 32.6107 67.4402 32.0044V22.9648V18.0942H60.2483V22.9648V50.8933H67.4402V36.983C67.4402 36.3767 67.9302 35.8826 68.5365 35.8826C69.1427 35.8826 69.6369 36.3767 69.6369 36.983V51.9894C69.6369 52.2551 69.5663 52.3881 69.45 52.6122L64.8243 61.7224C64.7206 61.9259 64.5545 62.1002 64.3343 62.2124C63.7945 62.4865 63.1384 62.2663 62.8644 61.7266L58.222 52.5916C58.114 52.3716 58.0477 52.2471 58.0477 51.9895V24.061H13.9121V32.3738C13.9121 32.9801 13.4221 33.4744 12.8158 33.4744C12.2095 33.4744 11.7154 32.9801 11.7154 32.3738V22.9648V10.9521C10.7728 10.3626 9.70991 10.0637 8.59707 10.0637C6.96933 10.0637 5.49526 10.7239 4.42388 11.791C3.35674 12.8623 2.69639 14.3363 2.69639 15.9641V53.4926C2.75454 53.4302 2.81269 53.368 2.8707 53.3099C4.33657 51.8441 6.36289 50.939 8.59692 50.939C9.48974 50.939 10.3534 51.0885 11.1714 51.3583C11.3542 51.4206 11.5369 51.4912 11.7153 51.5659V37.3527C11.7153 36.7464 12.2094 36.2523 12.8157 36.2523C13.422 36.2523 13.912 36.7464 13.912 37.3527V53.4512C13.912 53.6795 13.8372 53.912 13.6877 54.1115C13.3265 54.5932 12.6371 54.6885 12.1514 54.3232C11.6489 53.9413 11.08 53.6381 10.4738 53.4387C9.89257 53.2436 9.26137 53.1356 8.59707 53.1356C6.96933 53.1356 5.49526 53.796 4.42388 54.8631C3.35674 55.9301 2.69639 57.4084 2.69639 59.036C2.69639 60.668 3.35659 62.1419 4.42388 63.2091C5.49511 64.2762 6.96919 64.9364 8.59707 64.9364H39.0131C39.6194 64.9364 40.1092 65.4307 40.1092 66.0368C40.1092 66.6431 39.6192 67.1331 39.0131 67.1331H8.59707C6.36303 67.1331 4.33672 66.2278 2.87085 64.7621C1.40513 63.2962 0.5 61.274 0.5 59.0359V15.9639C0.5 13.7299 1.40513 11.7036 2.87085 10.2378C4.33672 8.77197 6.36303 7.8667 8.59707 7.8667C10.3285 7.8667 12.031 8.4314 13.422 9.46133C13.7168 9.66055 13.912 9.99688 13.912 10.3791L13.9121 21.8645ZM66.7509 53.0898H60.9336L63.8444 58.8159L66.7509 53.0898ZM52.0682 28.5206C52.6745 28.5206 53.1643 29.0146 53.1643 29.6209C53.1643 30.2272 52.6743 30.7171 52.0682 30.7171H37.1986C36.5923 30.7171 36.1024 30.2271 36.1024 29.6209C36.1024 29.0146 36.5924 28.5206 37.1986 28.5206H52.0682ZM45.8854 39.0093C46.4958 39.0093 46.9858 39.4993 46.9858 40.1054C46.9858 40.7116 46.4958 41.2058 45.8854 41.2058H37.1987C36.5924 41.2058 36.1026 40.7117 36.1026 40.1054C36.1026 39.4991 36.5926 39.0093 37.1987 39.0093H45.8854ZM52.0682 33.7648C52.6745 33.7648 53.1643 34.255 53.1643 34.8652C53.1643 35.4715 52.6743 35.9615 52.0682 35.9615H37.1986C36.5923 35.9615 36.1024 35.4714 36.1024 34.8652C36.1024 34.255 36.5924 33.7648 37.1986 33.7648H52.0682ZM18.6665 27.47H31.2523C31.8586 27.47 32.3485 27.9641 32.3485 28.5704V41.156C32.3485 41.7623 31.8585 42.2564 31.2523 42.2564H18.6665C18.0561 42.2564 17.5662 41.7623 17.5662 41.156V28.5704C17.5662 27.9641 18.0561 27.47 18.6665 27.47ZM30.1521 29.6707H19.7628V40.0599H30.1521V29.6707Z" fill="#8A8987"/>
</g>
</g>
<defs>
<clipPath id="clip0_594_810">
<rect width="75" height="75" fill="white" transform="translate(0.5)"/>
</clipPath>
</defs>
</svg>
