<svg width="76" height="75" viewBox="0 0 76 75" fill="none" xmlns="http://www.w3.org/2000/svg">
<g id="vase 1" clip-path="url(#clip0_594_728)">
<g id="Group">
<g id="Group_2">
<path id="Vector" d="M28.8083 58.5706C27.7441 56.8162 26.7986 54.9926 25.978 53.1119C25.5277 51.8945 25.326 50.5993 25.3847 49.3027C25.3847 49.1781 25.3847 49.0594 25.3847 48.9407C25.4203 48.1041 25.4678 47.0658 23.9785 46.4903C23.3383 46.2667 22.6389 46.2814 22.0086 46.5318L21.7535 45.0366C22.784 44.7113 23.6974 44.0927 24.382 43.2566H24.4116C26.2603 41.9203 27.2772 39.7156 27.0935 37.4419C26.7197 34.4752 23.1775 32.0544 23.0232 31.9476C22.7757 31.781 22.4428 31.8242 22.246 32.0485C22.246 32.0485 22.0858 32.2324 21.8781 32.4994C21.0807 31.9464 20.2438 31.4526 19.3742 31.022C19.1645 30.9234 18.9166 30.9559 18.7393 31.1051C17.986 31.7499 17.2837 32.4521 16.6389 33.2055C16.3482 32.98 16.1643 32.8495 16.1405 32.8317C15.893 32.6651 15.5601 32.7083 15.3633 32.9326C15.2387 33.069 12.4263 36.3205 12.8001 39.2634C13.1839 41.4766 14.6789 43.337 16.7576 44.1881C17.7132 44.9145 18.88 45.3083 20.0803 45.3095C20.2405 45.3095 20.4066 45.3095 20.5728 45.3095L20.8872 47.1667C20.6401 47.3364 20.4097 47.529 20.199 47.7422C19.4867 48.5735 18.9497 49.5402 18.6207 50.5843L18.3121 51.4506C18.0748 52.1507 17.7722 53.0288 17.4637 53.8239C16.7398 55.5815 15.9096 57.2936 14.9776 58.9503C13.5655 61.5788 12.3491 63.8572 12.3491 65.4236C12.3462 69.3427 14.6974 72.8803 18.3121 74.3948C18.3857 74.4248 18.4642 74.4408 18.5435 74.4423H25.6042C25.6838 74.4421 25.7625 74.426 25.8356 74.3948C29.4538 72.8834 31.8082 69.3447 31.8046 65.4236C31.8046 63.7919 30.4162 61.3711 28.8083 58.5706ZM23.5276 47.5879C24.1209 47.8253 24.204 48.0567 24.1862 48.6322C24.1483 49.5339 23.5357 50.3093 22.6672 50.5546L22.1866 47.76C22.5956 47.5344 23.075 47.473 23.5276 47.5879ZM22.774 33.2708H22.7978C23.6937 33.9768 25.6754 35.7331 25.9128 37.6021C25.9904 38.3154 25.899 39.0371 25.6458 39.7084C25.6467 39.4941 25.6329 39.2801 25.6042 39.0676C25.3728 37.252 23.4089 35.7568 21.7832 34.8134C22.0792 34.2779 22.4103 33.7626 22.774 33.2708ZM19.1844 32.2799C19.8716 32.636 20.5372 33.0324 21.178 33.4666C21.0237 33.7039 20.8694 33.9531 20.7152 34.232C20.1693 33.959 19.754 33.787 19.6116 33.7276C19.4143 33.6444 19.1876 33.6739 19.0182 33.8048C18.8996 33.8938 18.5554 34.1548 18.1045 34.5405C17.9027 34.3269 17.7069 34.137 17.5111 33.9472C18.036 33.3593 18.5947 32.8026 19.1844 32.2799ZM14.5682 40.462C14.5919 40.636 14.6216 40.8021 14.6572 40.9604C14.2926 40.4046 14.0575 39.7739 13.9689 39.1151C13.7316 37.2461 15.2149 35.0508 15.9032 34.143C16.3746 34.5184 16.8189 34.9268 17.2323 35.3652C15.8913 36.6824 14.3368 38.6345 14.5682 40.462ZM20.6262 44.0999C19.4781 44.2466 18.3188 43.9303 17.4043 43.2208L17.4162 43.209C16.4997 42.5047 15.9053 41.461 15.7667 40.3135C15.5887 38.9073 17.1433 37.0858 18.4664 35.8516C18.8343 35.5134 19.1784 35.2168 19.4632 34.9913C21.0059 35.6736 24.1624 37.418 24.3938 39.2277C24.6988 41.6136 23.012 43.7949 20.6262 44.0999ZM21.0415 48.5551V48.5491L21.1127 48.4839L21.4924 50.7148C21.3144 50.7148 21.1364 50.7148 20.9466 50.7148C20.5287 50.727 20.1708 50.418 20.1218 50.0028C20.3535 49.4765 20.6637 48.9884 21.0415 48.5551ZM13.5121 65.4414C13.5121 64.2013 14.7759 61.828 15.9981 59.5258V59.5199C16.954 57.8187 17.806 56.0612 18.5495 54.257C18.858 53.4323 19.1428 52.5423 19.4158 51.8362C19.4692 51.6642 19.5285 51.5099 19.576 51.3616C19.9299 51.6913 20.3918 51.8812 20.8754 51.8956H21.3382C21.4548 51.9018 21.5716 51.9018 21.6882 51.8956L24.204 66.6755H13.6011C13.5416 66.2669 13.5118 65.8544 13.5121 65.4414ZM25.4618 73.2734V73.2675H18.6444C16.3263 72.2579 14.5734 70.2748 13.8562 67.8503H24.4116L25.005 71.2086C25.052 71.4988 25.3043 71.7107 25.5983 71.707H25.6992C26.0217 71.6526 26.2394 71.3473 26.1857 71.0247L25.6458 67.8622H30.2797C29.5573 70.2921 27.7919 72.275 25.4618 73.2734ZM25.4084 66.6637L22.863 51.7413C23.3726 51.6106 23.8454 51.365 24.2455 51.0234C24.3275 51.9024 24.527 52.7666 24.8388 53.5925C25.6849 55.5192 26.6602 57.3866 27.7581 59.1817V59.1758C29.1524 61.6025 30.5942 64.1183 30.5942 65.4355C30.5915 65.8463 30.5619 66.2566 30.5052 66.6637H25.4084Z" fill="#8A8987"/>
</g>
</g>
<g id="Group_3">
<g id="Group_4">
<path id="Vector_2" d="M60.0352 7.43935C59.9036 7.27663 59.7611 7.1231 59.6083 6.98011C59.3975 6.78119 59.074 6.76369 58.8429 6.93857C56.8509 8.44965 56.4609 11.2894 57.9719 13.2813C58.0431 13.3752 58.1178 13.4662 58.1962 13.5541L56.8671 19.4341L53.3427 23.4628L53.2893 23.5281L49.8657 28.7317L46.7863 22.3414C46.9643 21.7562 47.2844 21.2243 47.7178 20.7928C47.8559 20.8437 47.9992 20.8794 48.145 20.8996H48.3586C48.7896 20.9041 49.2088 20.7594 49.5453 20.4902C49.9372 20.182 50.1876 19.7282 50.2395 19.2323C50.3027 18.1955 49.5134 17.3037 48.4766 17.2405C47.5167 17.1819 46.6673 17.857 46.5074 18.8051C46.4628 19.2365 46.5675 19.6701 46.8041 20.0333C46.5451 20.3094 46.3182 20.6139 46.1277 20.9412L43.8137 16.1945L41.3276 6.81976C41.3119 6.77348 41.2899 6.72957 41.2624 6.68923C42.7685 4.70585 42.3818 1.87712 40.3985 0.370793C40.2627 0.2677 40.1212 0.17247 39.9748 0.085398C39.7255 -0.065161 39.4036 -0.0123541 39.2153 0.209999C37.5932 2.10393 37.8133 4.95431 39.7072 6.57664C39.8523 6.70094 40.0051 6.81575 40.1647 6.92063C40.1558 6.98752 40.1558 7.05546 40.1647 7.12236L42.6567 16.5505C42.6632 16.5877 42.6752 16.6236 42.6923 16.6573L49.1181 29.8887L48.5248 30.7846C48.4953 30.8289 48.4712 30.8767 48.4536 30.927L48.1925 31.7755L42.4194 26.2574L39.1857 21.9439C39.1139 21.854 39.0198 21.7844 38.9127 21.7422L34.0415 19.9621C33.9146 19.9178 33.7767 19.9178 33.6499 19.9621L32.297 20.419C31.8571 19.664 31.2577 19.014 30.5408 18.5144C30.579 18.3947 30.6049 18.2714 30.6179 18.1465C30.732 17.114 29.9873 16.1847 28.9548 16.0706C28.465 16.0165 27.9734 16.1569 27.586 16.4615C26.7723 17.1021 26.6322 18.2809 27.2728 19.0945C27.2764 19.099 27.2798 19.1034 27.2834 19.1077C27.591 19.5013 28.0446 19.7537 28.5412 19.8079H28.7548C29.1406 19.8064 29.5162 19.6839 29.8288 19.4578C30.3493 19.8255 30.791 20.2935 31.1282 20.8344L27.3664 22.0744L22.5545 20.8878L17.0483 17.215H16.9949C16.471 14.7702 14.0644 13.2131 11.6196 13.737C11.5439 13.7532 11.4686 13.7714 11.3938 13.7915C11.1135 13.8656 10.9278 14.1316 10.9547 14.4204C11.1678 16.9017 13.352 18.7406 15.8333 18.5276C16.1056 18.5042 16.3753 18.4561 16.6389 18.3839L21.9789 21.9439C22.0377 21.9811 22.1016 22.0092 22.1688 22.027L27.2418 23.267C27.3503 23.2986 27.4657 23.2986 27.5741 23.267L33.7982 21.1607L38.3075 22.7864L41.5175 26.9991L41.5768 27.0703L47.8068 33.0037L47.4924 34.0361H43.7425C43.4148 34.0361 43.1492 34.3017 43.1492 34.6294V40.2839C43.14 40.8336 42.7546 41.305 42.2176 41.4231C38.6141 42.2996 36.0788 45.5287 36.0825 49.2373V66.9484C36.0858 71.3938 39.6887 74.9967 44.1341 75H49.1063C53.5517 74.9967 57.1546 71.3938 57.1578 66.9484V49.2373C57.1587 45.5278 54.6215 42.2992 51.0168 41.4231C50.4798 41.305 50.0945 40.8336 50.0853 40.2839V34.6294C50.0853 34.3017 49.8196 34.0361 49.4919 34.0361H48.7384L49.5809 31.3661L51.2363 28.8444C52.078 29.6458 53.1951 30.094 54.3573 30.0963H54.5768C55.9103 30.0327 57.147 29.3808 57.9529 28.3163C58.1294 28.0867 58.1144 27.7632 57.9173 27.5509C57.0025 26.5672 55.6988 26.0392 54.3573 26.1091C53.8044 26.136 53.2614 26.2647 52.7553 26.4888L54.2564 24.2104L57.852 20.0986C57.9168 20.0231 57.9634 19.9338 57.9885 19.8375L59.3591 13.7974C61.3015 12.2285 61.6043 9.38178 60.0352 7.43935ZM48.3533 18.3199C48.3849 18.3213 48.4165 18.3248 48.4477 18.3305C48.8284 18.3748 49.1012 18.7196 49.0567 19.1005C49.0353 19.2835 48.9422 19.4504 48.7977 19.5646C48.6556 19.6779 48.4738 19.7293 48.2934 19.707C47.9104 19.6904 47.6133 19.3666 47.6297 18.9834C47.6463 18.6006 47.9703 18.3035 48.3533 18.3199ZM40.4851 5.70444C39.8793 5.18675 39.4792 4.46881 39.3577 3.68116C39.2294 2.89959 39.3784 2.09784 39.779 1.41462C41.0376 2.4761 41.3371 4.29541 40.4851 5.70444ZM29.4312 17.9984C29.3848 18.373 29.0473 18.642 28.6718 18.6036L28.6777 18.5917C28.496 18.5703 28.3299 18.4788 28.2149 18.3366C28.1007 18.1925 28.0494 18.0086 28.0725 17.8263C28.1177 17.4823 28.4138 17.227 28.7608 17.233H28.8379C29.2087 17.288 29.4702 17.6254 29.4312 17.9984ZM13.5536 16.7346C12.8988 16.2811 12.4292 15.6071 12.2304 14.8359C13.025 14.7577 13.8212 14.9683 14.4732 15.4292C15.1271 15.8847 15.5982 16.5576 15.8023 17.3279C15.0059 17.4058 14.2079 17.1953 13.5536 16.7346ZM37.2692 49.2375C37.2677 46.0765 39.4304 43.3253 42.5024 42.5803C43.5709 42.3306 44.329 41.3813 44.3358 40.284V35.2229H47.1245L44.941 42.1649L41.0784 59.3717H37.2692V49.2375ZM48.8986 35.211V40.2722C48.9062 41.3712 49.6671 42.3211 50.7379 42.5684C53.8099 43.3135 55.9725 46.0646 55.9711 49.2256V59.3539H53.0045C52.6768 59.3539 52.4111 59.6195 52.4111 59.9472C52.4111 60.2749 52.6768 60.5405 53.0045 60.5405H55.9711V66.9367C55.9744 70.7314 52.9009 73.8102 49.1063 73.8135H44.1341C40.344 73.8102 37.2725 70.7386 37.2692 66.9486V60.5524H40.8292L38.9127 69.0964C38.8396 69.4158 39.0391 69.7341 39.3586 69.8073C39.3603 69.8077 39.362 69.808 39.3637 69.8084C39.407 69.8147 39.4509 69.8147 39.4942 69.8084C39.7771 69.8154 40.0254 69.6217 40.0875 69.3456L42.0634 60.5405H49.575C49.9027 60.5405 50.1683 60.2749 50.1683 59.9472C50.1683 59.6195 49.9027 59.3539 49.575 59.3539H42.2948L46.0862 42.4616L48.3646 35.211H48.8986ZM54.4403 27.3019C55.2375 27.2609 56.0222 27.5119 56.6476 28.0079C55.4521 29.1405 53.6083 29.2287 52.3103 28.2156C52.887 27.6642 53.6435 27.3398 54.4403 27.3019ZM59.8812 10.4571C59.8308 11.2527 59.5009 12.0051 58.9497 12.5812C58.4602 11.9511 58.2156 11.1648 58.2614 10.3681C58.304 9.57388 58.6278 8.82093 59.1752 8.24391H59.187C59.6758 8.87478 59.9222 9.66006 59.8812 10.4571Z" fill="#8A8987"/>
</g>
</g>
<g id="Group_5">
<g id="Group_6">
<path id="Vector_3" d="M33.4581 13.2957C33.2247 13.175 32.9811 13.0749 32.7301 12.9964C32.4524 12.9108 32.1535 13.0388 32.024 13.299C30.8739 15.519 31.741 18.2511 33.961 19.4013C34.1942 19.5222 34.4374 19.6225 34.6881 19.7011C34.7472 19.71 34.8071 19.71 34.8661 19.7011C35.0882 19.7015 35.292 19.578 35.3942 19.3807C36.5399 17.1658 35.6731 14.4415 33.4581 13.2957ZM34.5339 18.3544C33.823 17.9939 33.2637 17.3924 32.9556 16.6574C32.6588 15.9255 32.6294 15.1125 32.8725 14.3612C33.5747 14.718 34.1292 15.3102 34.4389 16.0344C34.7454 16.7718 34.7791 17.5943 34.5339 18.3544Z" fill="#8A8987"/>
</g>
</g>
<g id="Group_7">
<g id="Group_8">
<path id="Vector_4" d="M52.3382 15.0335C52.0948 14.9566 51.8452 14.9002 51.5923 14.8652C51.2917 14.8069 50.9961 14.9868 50.9099 15.2805C50.1533 17.6601 51.4692 20.2025 53.8487 20.959C54.0978 21.0383 54.3534 21.0957 54.6124 21.1308H54.6954C54.9645 21.1431 55.2082 20.9725 55.2888 20.7155C56.043 18.3318 54.7221 15.7878 52.3382 15.0335ZM54.2386 19.8197C52.6652 19.3317 51.6811 17.771 51.9186 16.141C53.4985 16.6204 54.4867 18.1873 54.2386 19.8197Z" fill="#8A8987"/>
</g>
</g>
<g id="Group_9">
<g id="Group_10">
<path id="Vector_5" d="M40.8708 11.4952C40.3955 10.2526 39.3971 9.28247 38.1414 8.84296C36.8798 8.40656 35.4899 8.54985 34.3441 9.23456C34.0956 9.38289 33.9903 9.68861 34.0949 9.95843C34.9933 12.2882 37.6104 13.4484 39.9401 12.5498C40.1761 12.4587 40.4041 12.3481 40.6216 12.219C40.87 12.0707 40.9753 11.7648 40.8708 11.4952ZM37.2277 11.4892C36.479 11.2246 35.8483 10.7032 35.4477 10.0178C36.9786 9.40648 38.7262 10.01 39.5536 11.4358C38.8098 11.7322 37.9843 11.7512 37.2277 11.4892Z" fill="#8A8987"/>
</g>
</g>
<g id="Group_11">
<g id="Group_12">
<path id="Vector_6" d="M63.5124 22.0746C61.8153 20.2429 58.9547 20.1339 57.123 21.831C56.9324 22.0075 56.7575 22.2002 56.6 22.4068V22.395C56.4235 22.6246 56.4385 22.9481 56.6356 23.1604C57.4914 24.0836 58.6934 24.6084 59.9524 24.6081H60.166C61.5005 24.5423 62.7381 23.8909 63.548 22.8281C63.7178 22.6007 63.703 22.2849 63.5124 22.0746ZM57.8994 22.7154C59.0978 21.5845 60.9417 21.4962 62.2426 22.5077C61.0442 23.6386 59.2003 23.7267 57.8994 22.7154Z" fill="#8A8987"/>
</g>
</g>
<g id="Group_13">
<g id="Group_14">
<path id="Vector_7" d="M32.2292 23.8114C32.1958 23.5586 32.1411 23.309 32.0656 23.0654C31.9809 22.7872 31.7071 22.6114 31.4189 22.6501C28.9418 22.9656 27.1897 25.2295 27.5052 27.7065C27.538 27.9636 27.5927 28.2172 27.669 28.4648C27.7473 28.7242 27.9916 28.8976 28.2623 28.8861H28.3395C30.815 28.5588 32.5564 26.2868 32.2292 23.8114ZM30.5348 26.2279C30.1011 26.8972 29.4423 27.3897 28.6777 27.6163C28.4609 25.9799 29.468 24.4292 31.051 23.9614C31.1542 24.7542 30.9712 25.5579 30.5348 26.2279Z" fill="#8A8987"/>
</g>
</g>
<g id="Group_15">
<g id="Group_16">
<path id="Vector_8" d="M34.2305 22.2329C34.0084 22.1601 33.7803 22.1072 33.5489 22.0745C33.262 22.0314 32.9858 22.2019 32.8962 22.478C32.2136 24.5648 33.3518 26.8096 35.4385 27.4924C35.6505 27.5617 35.8678 27.6132 36.0884 27.6459L36.1774 27.6578C36.4448 27.6709 36.6879 27.5031 36.7707 27.2484C37.4542 25.1619 36.317 22.9165 34.2305 22.2329ZM35.7324 26.3703V26.3406C35.1367 26.1312 34.6316 25.7225 34.3024 25.1836C33.9758 24.6509 33.8361 24.0247 33.9049 23.4036C35.1344 23.8415 35.8944 25.0752 35.7324 26.3703Z" fill="#8A8987"/>
</g>
</g>
<g id="Group_17">
<g id="Group_18">
<path id="Vector_9" d="M64.6278 13.0023C62.5345 12.351 60.3097 13.5197 59.6582 15.613C59.5913 15.8281 59.5428 16.0484 59.5133 16.2716C59.4738 16.5582 59.6468 16.8314 59.9227 16.9184C60.3073 17.0358 60.7072 17.0958 61.1094 17.0964C63.0994 17.0903 64.7793 15.6155 65.0432 13.6431C65.0789 13.357 64.9036 13.0866 64.6278 13.0023ZM62.6046 15.4706C62.0762 15.809 61.4484 15.9574 60.8245 15.8919C61.2458 14.664 62.4584 13.8891 63.7497 14.0229C63.5434 14.6214 63.1396 15.132 62.6046 15.4706Z" fill="#8A8987"/>
</g>
</g>
<g id="Group_19">
<g id="Group_20">
<path id="Vector_10" d="M20.6083 21.6414C20.5561 21.356 20.3051 21.1501 20.0149 21.1549C17.5149 21.1863 15.5136 23.2385 15.545 25.7385C15.5482 25.9923 15.5728 26.2452 15.6183 26.4949C15.6705 26.7803 15.9215 26.9862 16.2117 26.9814C18.7149 26.9461 20.7157 24.8881 20.6804 22.3849C20.6768 22.1354 20.6528 21.8867 20.6083 21.6414ZM16.7397 25.7236C16.7241 24.932 16.9937 24.1613 17.4992 23.5519C18.0003 22.9276 18.7106 22.506 19.4987 22.3653C19.5326 24.0116 18.3615 25.4371 16.7397 25.7236Z" fill="#8A8987"/>
</g>
</g>
<g id="Group_21">
<g id="Group_22">
<path id="Vector_11" d="M48.9281 10.1544C48.8864 9.85948 48.6326 9.64113 48.3348 9.6441C45.8318 9.59129 43.7599 11.5775 43.7071 14.0805C43.7017 14.3331 43.7176 14.5858 43.7542 14.8358C43.7986 15.1283 44.0516 15.3435 44.3476 15.3401H44.4484C46.9455 15.3443 48.9731 13.3235 48.9772 10.8265C48.9777 10.6014 48.9612 10.3769 48.9281 10.1544ZM44.9112 14.1534C44.9222 13.3548 45.219 12.5864 45.7478 11.9878C46.2753 11.391 46.9996 11.0036 47.7889 10.896C47.7639 12.5427 46.5423 13.9255 44.9112 14.1534Z" fill="#8A8987"/>
</g>
</g>
<g id="Group_23">
<g id="Group_24">
<path id="Vector_12" d="M25.7703 16.5741C25.204 15.3649 24.134 14.4664 22.8452 14.1177C22.5651 14.0422 22.2716 14.1802 22.151 14.444C21.1043 16.7147 22.0967 19.4039 24.3674 20.4505C24.5979 20.5567 24.837 20.6435 25.082 20.7097L25.0761 20.7334C25.1292 20.742 25.1832 20.742 25.2363 20.7334C25.4659 20.7316 25.6739 20.5977 25.7703 20.3893C26.334 19.1799 26.334 17.7833 25.7703 16.5741ZM24.8803 19.4103C23.3809 18.7287 22.5988 17.0587 23.035 15.4705C24.542 16.1444 25.3272 17.821 24.8803 19.4103Z" fill="#8A8987"/>
</g>
</g>
<g id="Group_25">
<g id="Group_26">
<path id="Vector_13" d="M24.545 23.3767C23.5095 23.2604 22.5758 24.0055 22.4595 25.041C22.3381 26.0727 23.0761 27.0073 24.1078 27.1287C24.1101 27.129 24.1125 27.1293 24.1149 27.1296H24.3285C24.7594 27.134 25.1786 26.9894 25.5151 26.7202C25.907 26.4119 26.1574 25.9582 26.2093 25.4623C26.3256 24.4268 25.5806 23.493 24.545 23.3767ZM25.0148 25.3421C24.9935 25.5252 24.9003 25.6921 24.7558 25.8063C24.6137 25.9196 24.4319 25.9709 24.2515 25.9487C23.8685 25.9321 23.5714 25.6082 23.5878 25.2251C23.6045 24.8421 23.9283 24.545 24.3114 24.5614C24.343 24.5628 24.3746 24.5663 24.4058 24.572C24.7864 24.6166 25.0592 24.9614 25.0148 25.3421Z" fill="#8A8987"/>
</g>
</g>
<g id="Group_27">
<g id="Group_28">
<path id="Vector_14" d="M41.3632 14.3611C40.7209 13.5488 39.5418 13.4109 38.7295 14.0532C38.7273 14.055 38.7251 14.0567 38.7228 14.0585V14.0348C37.9098 14.6814 37.775 15.8646 38.4217 16.6777C38.7317 17.0673 39.1836 17.3182 39.6781 17.3753H39.8976C40.9394 17.3493 41.7628 16.4838 41.7368 15.442C41.7272 15.0518 41.5965 14.6741 41.3632 14.3611ZM40.3189 16.0462C40.178 16.1622 39.9958 16.2157 39.8146 16.1945C39.4338 16.1494 39.1617 15.8041 39.2068 15.4235C39.2281 15.2442 39.3184 15.0802 39.4586 14.9663C39.5805 14.8659 39.7337 14.8113 39.8917 14.8121H39.9688C40.3413 14.8643 40.6044 15.2037 40.5622 15.5775L40.58 15.5834C40.5591 15.7666 40.4649 15.9335 40.3189 16.0462Z" fill="#8A8987"/>
</g>
</g>
</g>
<defs>
<clipPath id="clip0_594_728">
<rect width="75" height="75" fill="white" transform="translate(0.5)"/>
</clipPath>
</defs>
</svg>
