<svg width="86" height="40" viewBox="0 0 86 40" fill="none" xmlns="http://www.w3.org/2000/svg">
<g clip-path="url(#clip0_1235_738)">
<g clip-path="url(#clip1_1235_738)">
<mask id="mask0_1235_738" style="mask-type:luminance" maskUnits="userSpaceOnUse" x="0" y="12" width="85" height="28">
<path d="M84.6667 12.6667H0V39.3333H84.6667V12.6667Z" fill="white"/>
</mask>
<g mask="url(#mask0_1235_738)">
<path d="M33.2578 33.1111C33.2578 27.8473 37.1245 23.9807 42.6025 23.9807C48.0806 23.9807 51.9473 27.8473 51.9473 33.1111M51.1951 33.1111C51.1951 28.2507 47.6498 24.6519 42.6014 24.6519C37.553 24.6519 34.0088 28.2507 34.0088 33.1111" fill="#898886"/>
<path d="M33.2578 33.1111C33.2578 27.8473 37.1245 23.9807 42.6025 23.9807C48.0806 23.9807 51.9473 27.8473 51.9473 33.1111M51.1951 33.1111C51.1951 28.2507 47.6498 24.6519 42.6014 24.6519C37.553 24.6519 34.0088 28.2507 34.0088 33.1111" stroke="#898886" stroke-width="0.5" stroke-miterlimit="10"/>
<path d="M7.22528 33.0245C7.14778 33.0245 7.11132 32.996 7.11132 32.9379C7.11991 32.9112 7.13473 32.8869 7.15454 32.8671C7.17436 32.8473 7.1986 32.8325 7.22528 32.8239H7.15006C7.1893 32.8296 7.22932 32.8261 7.26696 32.8136C7.3046 32.8012 7.33882 32.7801 7.36691 32.7522C7.395 32.7242 7.41618 32.69 7.42879 32.6524C7.44139 32.6149 7.44507 32.5748 7.43952 32.5356V13.4644C7.44507 13.4251 7.44139 13.3851 7.42879 13.3475C7.41618 13.3099 7.395 13.2758 7.36691 13.2478C7.33882 13.2198 7.3046 13.1988 7.26696 13.1863C7.22932 13.1739 7.1893 13.1703 7.15006 13.176H2.78767C2.11302 13.1958 1.59754 13.3979 1.24123 13.7823C0.882079 14.1762 0.690385 14.6945 0.706755 15.2273H0.503906V12.702H15.7905V15.2239H15.5888V15.1943C15.5974 14.9296 15.5536 14.6659 15.4602 14.4181C15.3667 14.1704 15.2253 13.9435 15.0441 13.7504C14.6787 13.3652 14.1487 13.1726 13.4543 13.1726H8.94266C8.90342 13.1669 8.8634 13.1704 8.82576 13.1829C8.78812 13.1954 8.7539 13.2164 8.72581 13.2444C8.69772 13.2724 8.67654 13.3065 8.66393 13.3441C8.65133 13.3817 8.64765 13.4217 8.6532 13.4609V32.5333C8.64765 32.5726 8.65133 32.6126 8.66393 32.6502C8.67654 32.6878 8.69772 32.7219 8.72581 32.7499C8.7539 32.7778 8.78812 32.7989 8.82576 32.8114C8.8634 32.8238 8.90342 32.8273 8.94266 32.8216H8.86744C8.96317 32.8216 9.00192 32.8615 8.9814 32.9356C8.97516 32.9609 8.96045 32.9833 8.93972 32.999C8.91898 33.0148 8.89348 33.023 8.86744 33.0222L7.22528 33.0245Z" fill="#898886"/>
<path d="M7.22528 33.0245C7.14778 33.0245 7.11132 32.996 7.11132 32.9379C7.11991 32.9112 7.13473 32.8869 7.15454 32.8671C7.17436 32.8473 7.1986 32.8325 7.22528 32.8239H7.15006C7.1893 32.8296 7.22932 32.8261 7.26696 32.8136C7.3046 32.8012 7.33882 32.7801 7.36691 32.7522C7.395 32.7242 7.41618 32.69 7.42879 32.6524C7.44139 32.6149 7.44507 32.5748 7.43952 32.5356V13.4644C7.44507 13.4251 7.44139 13.3851 7.42879 13.3475C7.41618 13.3099 7.395 13.2758 7.36691 13.2478C7.33882 13.2198 7.3046 13.1988 7.26696 13.1863C7.22932 13.1739 7.1893 13.1703 7.15006 13.176H2.78767C2.11302 13.1958 1.59754 13.3979 1.24123 13.7823C0.882079 14.1762 0.690385 14.6945 0.706755 15.2273H0.503906V12.702H15.7905V15.2239H15.5888V15.1943C15.5974 14.9296 15.5536 14.6659 15.4602 14.4181C15.3667 14.1704 15.2253 13.9435 15.0441 13.7504C14.6787 13.3652 14.1487 13.1726 13.4543 13.1726H8.94266C8.90342 13.1669 8.8634 13.1704 8.82576 13.1829C8.78812 13.1954 8.7539 13.2164 8.72581 13.2444C8.69772 13.2724 8.67654 13.3065 8.66393 13.3441C8.65133 13.3817 8.64765 13.4217 8.6532 13.4609V32.5333C8.64765 32.5726 8.65133 32.6126 8.66393 32.6502C8.67654 32.6878 8.69772 32.7219 8.72581 32.7499C8.7539 32.7778 8.78812 32.7989 8.82576 32.8114C8.8634 32.8238 8.90342 32.8273 8.94266 32.8216H8.86744C8.96317 32.8216 9.00192 32.8615 8.9814 32.9356C8.97516 32.9609 8.96045 32.9833 8.93972 32.999C8.91898 33.0148 8.89348 33.023 8.86744 33.0222L7.22528 33.0245Z" stroke="#898886" stroke-width="0.5" stroke-miterlimit="10"/>
<path d="M22.3606 13.1726C22.2831 13.1726 22.2466 13.143 22.2466 13.0849C22.2448 13.0695 22.2465 13.0539 22.2516 13.0392C22.2566 13.0245 22.265 13.0112 22.276 13.0003C22.2869 12.9893 22.3002 12.9809 22.3149 12.9759C22.3296 12.9708 22.3452 12.9691 22.3606 12.9709H23.6803L31.1127 32.8228H31.1674C31.1828 32.821 31.1985 32.8226 31.2131 32.8277C31.2278 32.8328 31.2411 32.8411 31.2521 32.8521C31.263 32.8631 31.2714 32.8764 31.2765 32.8911C31.2815 32.9057 31.2832 32.9213 31.2814 32.9367C31.2814 32.9949 31.2426 33.0234 31.1674 33.0234H29.7794C29.7019 33.0234 29.6654 32.9949 29.6654 32.9367C29.6636 32.9213 29.6653 32.9057 29.6704 32.8911C29.6755 32.8764 29.6838 32.8631 29.6948 32.8521C29.7057 32.8411 29.7191 32.8328 29.7337 32.8277C29.7484 32.8226 29.764 32.821 29.7794 32.8228H29.8934L26.8597 24.702H18.4267L15.4501 32.8228H15.4763C15.4917 32.821 15.5073 32.8226 15.522 32.8277C15.5366 32.8328 15.5499 32.8411 15.5609 32.8521C15.5719 32.8631 15.5802 32.8764 15.5853 32.8911C15.5904 32.9057 15.5921 32.9213 15.5902 32.9367C15.5902 32.9949 15.5515 33.0234 15.4763 33.0234H15.1344C15.0569 33.0234 15.0204 32.9949 15.0204 32.9367C15.0184 32.9213 15.0199 32.9056 15.0249 32.8908C15.0299 32.876 15.0382 32.8626 15.0492 32.8516C15.0603 32.8406 15.0737 32.8322 15.0884 32.8272C15.1032 32.8223 15.1189 32.8207 15.1344 32.8228H15.221L22.3868 13.1726H22.3606ZM22.5532 13.2866L18.478 24.4991H26.772L22.5532 13.2866Z" fill="#898886"/>
<path d="M22.675 13.2024C22.5976 13.2024 22.5611 13.1728 22.5611 13.1147C22.5593 13.0993 22.5609 13.0836 22.566 13.069C22.5711 13.0543 22.5794 13.041 22.5904 13.03C22.6014 13.0191 22.6147 13.0107 22.6294 13.0056C22.644 13.0006 22.6596 12.9989 22.675 13.0007H23.9947L31.4272 32.8526H31.4819C31.4973 32.8507 31.5129 32.8524 31.5276 32.8575C31.5422 32.8626 31.5556 32.8709 31.5665 32.8819C31.5775 32.8929 31.5858 32.9062 31.5909 32.9208C31.596 32.9355 31.5977 32.9511 31.5958 32.9665C31.5958 33.0247 31.5571 33.0531 31.4819 33.0531H30.0939C30.0164 33.0531 29.9799 33.0247 29.9799 32.9665C29.9781 32.9511 29.9797 32.9355 29.9848 32.9208C29.9899 32.9062 29.9982 32.8929 30.0092 32.8819C30.0202 32.8709 30.0335 32.8626 30.0482 32.8575C30.0628 32.8524 30.0784 32.8507 30.0939 32.8526H30.2078L27.1742 24.7318H18.7411L15.7645 32.8526H15.7907C15.8061 32.8507 15.8217 32.8524 15.8364 32.8575C15.8511 32.8626 15.8644 32.8709 15.8754 32.8819C15.8863 32.8929 15.8947 32.9062 15.8997 32.9208C15.9048 32.9355 15.9065 32.9511 15.9047 32.9665C15.9047 33.0247 15.8659 33.0531 15.7907 33.0531H15.4488C15.3713 33.0531 15.3349 33.0247 15.3349 32.9665C15.3328 32.9511 15.3343 32.9354 15.3393 32.9206C15.3443 32.9058 15.3527 32.8924 15.3637 32.8814C15.3747 32.8704 15.3881 32.862 15.4029 32.857C15.4177 32.852 15.4334 32.8505 15.4488 32.8526H15.5354L22.7013 13.2024H22.675ZM22.8676 13.3164L18.7924 24.5289H27.0864L22.8676 13.3164Z" fill="#898886" stroke="#898886" stroke-width="0.5" stroke-miterlimit="10"/>
<path d="M53.9221 32.6667C54.1147 32.6667 54.109 32.5709 54.109 32.3784V13.2775C54.109 13.1043 54.0326 13.0165 53.881 13.0165H53.905C53.848 13.0165 53.8184 12.9835 53.8184 12.9162C53.8184 12.849 53.848 12.8148 53.905 12.8148H55.4628C55.5585 12.8148 55.5973 12.8536 55.5768 12.9288C55.5705 12.9541 55.5558 12.9765 55.5351 12.9922C55.5143 13.008 55.4888 13.0161 55.4628 13.0154C55.2896 13.0154 55.3283 13.1031 55.3283 13.2764V32.3818C55.3235 32.4204 55.3276 32.4597 55.3402 32.4966C55.3529 32.5334 55.3739 32.5669 55.4015 32.5944C55.4291 32.6219 55.4626 32.6427 55.4995 32.6552C55.5364 32.6678 55.5757 32.6717 55.6144 32.6667H62.5785C63.4066 32.6287 64.071 32.3248 64.5716 31.755C65.0731 31.1852 65.3238 30.7134 65.3238 29.7504H65.5289L65.4719 32.9846H53.8696C53.8127 32.9846 53.8412 32.8342 53.8412 32.7658C53.8412 32.6974 53.8696 32.6644 53.9278 32.6644L53.9221 32.6667Z" fill="#898886"/>
<path d="M53.9221 32.6667C54.1147 32.6667 54.109 32.5709 54.109 32.3784V13.2775C54.109 13.1043 54.0326 13.0165 53.881 13.0165H53.905C53.848 13.0165 53.8184 12.9835 53.8184 12.9162C53.8184 12.849 53.848 12.8148 53.905 12.8148H55.4628C55.5585 12.8148 55.5973 12.8536 55.5768 12.9288C55.5705 12.9541 55.5558 12.9765 55.5351 12.9922C55.5143 13.008 55.4888 13.0161 55.4628 13.0154C55.2896 13.0154 55.3283 13.1031 55.3283 13.2764V32.3818C55.3235 32.4204 55.3276 32.4597 55.3402 32.4966C55.3529 32.5334 55.3739 32.5669 55.4015 32.5944C55.4291 32.6219 55.4626 32.6427 55.4995 32.6552C55.5364 32.6678 55.5757 32.6717 55.6144 32.6667H62.5785C63.4066 32.6287 64.071 32.3248 64.5716 31.755C65.0731 31.1852 65.3238 30.7134 65.3238 29.7504H65.5289L65.4719 32.9846H53.8696C53.8127 32.9846 53.8412 32.8342 53.8412 32.7658C53.8412 32.6974 53.8696 32.6644 53.9278 32.6644L53.9221 32.6667Z" stroke="#898886" stroke-width="0.5" stroke-miterlimit="10"/>
<path d="M75.101 13.1726C75.0235 13.1726 74.987 13.143 74.987 13.0849C74.9849 13.0694 74.9865 13.0537 74.9915 13.0389C74.9965 13.0241 75.0048 13.0107 75.0158 12.9997C75.0268 12.9887 75.0403 12.9803 75.055 12.9754C75.0698 12.9704 75.0855 12.9688 75.101 12.9709H76.4457L83.8759 32.8227H83.9147C83.9301 32.8209 83.9457 32.8226 83.9603 32.8277C83.975 32.8328 83.9883 32.8411 83.9993 32.8521C84.0103 32.863 84.0186 32.8764 84.0237 32.891C84.0288 32.9057 84.0304 32.9213 84.0286 32.9367C84.0286 32.9948 83.9899 33.0233 83.9147 33.0233H82.6223C82.5448 33.0233 82.5084 32.9948 82.5084 32.9367C82.5065 32.9213 82.5082 32.9057 82.5133 32.891C82.5184 32.8764 82.5267 32.863 82.5377 32.8521C82.5487 32.8411 82.562 32.8328 82.5766 32.8277C82.5913 32.8226 82.6069 32.8209 82.6223 32.8227H82.6599L79.6252 24.7019H71.1864L68.2098 32.8227C68.2252 32.8209 68.2408 32.8226 68.2555 32.8277C68.2701 32.8328 68.2835 32.8411 68.2944 32.8521C68.3054 32.863 68.3137 32.8764 68.3188 32.891C68.3239 32.9057 68.3256 32.9213 68.3238 32.9367C68.3238 32.9948 68.285 33.0233 68.2098 33.0233H67.9408C67.8634 33.0233 67.8269 32.9948 67.8269 32.9367C67.8251 32.9213 67.8267 32.9057 67.8318 32.891C67.8369 32.8764 67.8452 32.863 67.8562 32.8521C67.8672 32.8411 67.8805 32.8328 67.8952 32.8277C67.9098 32.8226 67.9254 32.8209 67.9408 32.8227H67.9796L75.1454 13.1726H75.101ZM75.3198 13.2866L71.2457 24.4991H79.5386L75.3198 13.2866Z" fill="#898886"/>
<path d="M75.2748 13.2026C75.1973 13.2026 75.1608 13.173 75.1608 13.1149C75.1588 13.0994 75.1603 13.0837 75.1653 13.0689C75.1703 13.0541 75.1786 13.0407 75.1897 13.0297C75.2007 13.0187 75.2141 13.0103 75.2289 13.0054C75.2436 13.0004 75.2593 12.9988 75.2748 13.0009H76.6195L84.0497 32.8527H84.0885C84.1039 32.8509 84.1195 32.8526 84.1342 32.8577C84.1488 32.8628 84.1621 32.8711 84.1731 32.8821C84.1841 32.893 84.1924 32.9064 84.1975 32.921C84.2026 32.9357 84.2043 32.9513 84.2024 32.9667C84.2024 33.0248 84.1637 33.0533 84.0885 33.0533H82.7962C82.7187 33.0533 82.6822 33.0248 82.6822 32.9667C82.6804 32.9513 82.6821 32.9357 82.6871 32.921C82.6922 32.9064 82.7006 32.893 82.7115 32.8821C82.7225 32.8711 82.7358 32.8628 82.7505 32.8577C82.7651 32.8526 82.7808 32.8509 82.7962 32.8527H82.8338L79.799 24.7319H71.3603L68.3836 32.8527C68.399 32.8509 68.4147 32.8526 68.4293 32.8577C68.444 32.8628 68.4573 32.8711 68.4683 32.8821C68.4792 32.893 68.4876 32.9064 68.4927 32.921C68.4977 32.9357 68.4994 32.9513 68.4976 32.9667C68.4976 33.0248 68.4588 33.0533 68.3836 33.0533H68.1147C68.0372 33.0533 68.0007 33.0248 68.0007 32.9667C67.9989 32.9513 68.0006 32.9357 68.0057 32.921C68.0107 32.9064 68.0191 32.893 68.03 32.8821C68.041 32.8711 68.0543 32.8628 68.069 32.8577C68.0837 32.8526 68.0993 32.8509 68.1147 32.8527H68.1534L75.3192 13.2026H75.2748ZM75.4936 13.3166L71.4195 24.5291H79.7124L75.4936 13.3166Z" stroke="#898886" stroke-width="0.5" stroke-miterlimit="10"/>
<path d="M84.0268 33.0051H7.10938V33.0929H84.0268V33.0051Z" stroke="#898886" stroke-miterlimit="10"/>
<path d="M51.9481 17.6695H33.2598V17.9339H51.9481V17.6695Z" fill="#898886"/>
</g>
</g>
<path d="M48.0205 13.508C48.6635 13.508 49.026 13.9389 49.026 14.7016C49.026 15.519 48.5643 15.9567 47.894 15.9567C47.6683 15.9567 47.4528 15.9122 47.2989 15.8165L47.4289 15.5497C47.5554 15.6318 47.7161 15.6626 47.8905 15.6626C48.3762 15.6626 48.684 15.3582 48.684 14.7597V14.6742C48.5438 14.8828 48.2907 14.9889 47.9931 14.9889C47.5178 14.9889 47.1758 14.705 47.1758 14.2638C47.1758 13.8021 47.5451 13.508 48.0205 13.508ZM48.0513 14.7118C48.3796 14.7118 48.6053 14.5101 48.6053 14.2467C48.6053 14.0005 48.407 13.785 48.0342 13.785C47.723 13.785 47.5075 13.9663 47.5075 14.2502C47.5075 14.5306 47.7161 14.7118 48.0513 14.7118Z" fill="#898886"/>
<path d="M45.941 15.9567C45.3801 15.9567 44.9629 15.5121 44.9629 14.7324C44.9629 13.9526 45.3801 13.508 45.941 13.508C46.4984 13.508 46.9157 13.9526 46.9157 14.7324C46.9157 15.5121 46.4984 15.9567 45.941 15.9567ZM45.941 15.6523C46.3138 15.6523 46.5737 15.3445 46.5737 14.7324C46.5737 14.1202 46.3138 13.8124 45.941 13.8124C45.5648 13.8124 45.3049 14.1202 45.3049 14.7324C45.3049 15.3445 45.5648 15.6523 45.941 15.6523Z" fill="#898886"/>
<path d="M43.6597 15.9567C43.0989 15.9567 42.6816 15.5121 42.6816 14.7324C42.6816 13.9526 43.0989 13.508 43.6597 13.508C44.2172 13.508 44.6344 13.9526 44.6344 14.7324C44.6344 15.5121 44.2172 15.9567 43.6597 15.9567ZM43.6597 15.6523C44.0325 15.6523 44.2924 15.3445 44.2924 14.7324C44.2924 14.1202 44.0325 13.8124 43.6597 13.8124C43.2836 13.8124 43.0236 14.1202 43.0236 14.7324C43.0236 15.3445 43.2836 15.6523 43.6597 15.6523Z" fill="#898886"/>
<path d="M41.1825 15.6318H42.4102V15.9293H40.69V15.6968L41.6647 14.7563C41.9177 14.5101 41.9656 14.3596 41.9656 14.2091C41.9656 13.9629 41.7912 13.8124 41.4561 13.8124C41.1996 13.8124 40.9909 13.8945 40.8439 14.0723L40.6113 13.8705C40.796 13.6414 41.1141 13.508 41.4868 13.508C41.9861 13.508 42.3076 13.7645 42.3076 14.1749C42.3076 14.4075 42.2392 14.6161 41.9143 14.9273L41.1825 15.6318Z" fill="#898886"/>
<path d="M38.4731 15.9294V13.833H37.6523V13.5354H39.6325V13.833H38.8117V15.9294H38.4731Z" fill="#898886"/>
<path d="M36.604 15.9567C36.2381 15.9567 35.879 15.8336 35.6875 15.6558L35.814 15.389C35.9919 15.5497 36.2963 15.666 36.604 15.666C37.0179 15.666 37.1957 15.5053 37.1957 15.2967C37.1957 14.7118 35.7456 15.0812 35.7456 14.192C35.7456 13.8227 36.0329 13.508 36.6622 13.508C36.9426 13.508 37.2333 13.5833 37.4317 13.7201L37.3188 13.9937C37.1102 13.8603 36.8742 13.7987 36.6622 13.7987C36.2552 13.7987 36.0808 13.9697 36.0808 14.1783C36.0808 14.7631 37.5309 14.3972 37.5309 15.2761C37.5309 15.6421 37.2367 15.9567 36.604 15.9567Z" fill="#898886"/>
<path d="M33.9572 15.6319H35.3526V15.9294H33.6152V13.5354H35.3047V13.833H33.9572V14.5683H35.1576V14.8589H33.9572V15.6319Z" fill="#898886"/>
<path d="M60.7713 35.1499H60.3359V39.2639H60.7713V35.1499Z" fill="#898886"/>
<path d="M64.8679 37.4712V39.2638H64.4508V37.51C64.4508 36.8581 64.1089 36.5231 63.522 36.5231C62.8576 36.5231 62.4405 36.9345 62.4405 37.6399V39.2616H62.0234V36.1721H62.4234V36.7419C62.6514 36.3658 63.0639 36.1482 63.5984 36.1482C64.3505 36.1482 64.8679 36.5824 64.8679 37.4701" fill="#898886"/>
<path d="M67.6301 39.0758C67.4452 39.2237 67.2137 39.3009 66.9771 39.2935C66.3959 39.2935 66.0722 38.9641 66.0722 38.3943V36.5254H65.5195V36.1721H66.0722V35.4963H66.4893V36.1721H67.4306V36.5254H66.4893V38.3704C66.4893 38.7351 66.6774 38.9402 67.0249 38.9402C67.1911 38.9445 67.3531 38.8882 67.4808 38.7818L67.6301 39.0758Z" fill="#898886"/>
<path d="M70.9624 37.5476L68.4279 38.0616C68.6022 38.6861 69.172 39.0086 69.8341 38.8741C70.0094 38.8439 70.1759 38.7759 70.3222 38.6747C70.4684 38.5735 70.5908 38.4417 70.6809 38.2884L70.9646 38.506C70.8514 38.6994 70.6969 38.8653 70.5121 38.9919C70.3273 39.1186 70.1168 39.2029 69.8957 39.2388C68.951 39.4303 68.1749 38.9163 67.9926 38.0183C67.8102 37.1203 68.3082 36.3522 69.1606 36.179C70.0131 36.0058 70.7561 36.5095 70.9418 37.4189C70.9487 37.4542 70.9532 37.5009 70.9624 37.5476ZM68.3652 37.7562L70.5145 37.3197C70.4466 37.0466 70.2743 36.8109 70.0346 36.6635C69.7949 36.516 69.5068 36.4685 69.2324 36.5311C68.6455 36.6451 68.2968 37.1522 68.3652 37.7562Z" fill="#898886"/>
<path d="M73.3829 36.1493V36.555C73.3475 36.555 73.3122 36.555 73.2837 36.555C72.6364 36.555 72.2433 36.9664 72.2433 37.6946V39.2695H71.8262V36.1721H72.225V36.7784C72.4199 36.367 72.8131 36.1493 73.3829 36.1493Z" fill="#898886"/>
<path d="M74.041 35.1965C74.0428 35.1171 74.0759 35.0417 74.1331 34.9866C74.1903 34.9315 74.267 34.9013 74.3464 34.9025C74.387 34.9 74.4276 34.9058 74.4658 34.9196C74.504 34.9334 74.539 34.9548 74.5685 34.9827C74.5981 35.0105 74.6217 35.0441 74.6378 35.0813C74.654 35.1186 74.6623 35.1588 74.6623 35.1994C74.6623 35.24 74.654 35.2802 74.6378 35.3174C74.6217 35.3547 74.5981 35.3883 74.5685 35.4161C74.539 35.4439 74.504 35.4654 74.4658 35.4792C74.4276 35.493 74.387 35.4988 74.3464 35.4963C74.3066 35.4969 74.2671 35.4896 74.2302 35.4748C74.1932 35.46 74.1595 35.438 74.1311 35.4102C74.1027 35.3823 74.0801 35.3491 74.0647 35.3124C74.0492 35.2757 74.0412 35.2363 74.041 35.1965ZM74.1345 36.172H74.5516V39.2638H74.1345V36.172Z" fill="#898886"/>
<path d="M75.4043 37.7185C75.4043 36.8011 76.0744 36.1493 76.9792 36.1493C77.2903 36.1497 77.5943 36.2424 77.8527 36.4157C78.1111 36.5889 78.3123 36.8349 78.4309 37.1225C78.5494 37.4101 78.5801 37.7264 78.5188 38.0314C78.4576 38.3364 78.3073 38.6164 78.087 38.836C77.8666 39.0556 77.5861 39.2048 77.2808 39.265C76.9756 39.3251 76.6594 39.2933 76.3722 39.1737C76.0851 39.0541 75.8398 38.852 75.6675 38.5929C75.4952 38.3339 75.4036 38.0296 75.4043 37.7185ZM78.1257 37.7185C78.1257 36.996 77.6379 36.514 76.9792 36.514C76.3205 36.514 75.8271 36.996 75.8271 37.7185C75.8271 38.441 76.3217 38.9231 76.9792 38.9231C77.6368 38.9231 78.1257 38.441 78.1257 37.7185Z" fill="#898886"/>
<path d="M80.9571 36.1493V36.555C80.9218 36.555 80.8876 36.555 80.8579 36.555C80.2107 36.555 79.8175 36.9664 79.8175 37.6946V39.2695H79.4004V36.1721H79.7993V36.7784C79.9941 36.367 80.3873 36.1493 80.9571 36.1493Z" fill="#898886"/>
<path d="M81.3047 38.9116L81.4927 38.5823C81.8142 38.809 82.199 38.9286 82.5924 38.9242C83.1805 38.9242 83.4209 38.7247 83.4209 38.4193C83.4209 37.6136 81.4164 38.2484 81.4164 37.0256C81.4164 36.5207 81.8517 36.1447 82.6392 36.1447C83.023 36.1385 83.4012 36.2382 83.732 36.433L83.5508 36.768C83.2811 36.5887 82.963 36.496 82.6392 36.5025C82.0808 36.5025 81.8346 36.7202 81.8346 37.0142C81.8346 37.8495 83.838 37.2205 83.838 38.4068C83.838 38.9424 83.3685 39.2888 82.5628 39.2888C82.0511 39.2888 81.5577 39.1247 81.3092 38.9071" fill="#898886"/>
</g>
<defs>
<clipPath id="clip0_1235_738">
<rect width="85.3333" height="40" fill="white"/>
</clipPath>
<clipPath id="clip1_1235_738">
<rect width="85.3333" height="26.6667" fill="white" transform="translate(0 13)"/>
</clipPath>
</defs>
</svg>
