<svg width="15" height="16" viewBox="0 0 15 16" fill="none" xmlns="http://www.w3.org/2000/svg">
<g id="up-right-arrow 1" clip-path="url(#clip0_766_625)">
<path id="Vector" d="M15 1.13882V10.842C15 11.1948 14.714 11.4808 14.3612 11.4808C14.0084 11.4808 13.7224 11.1948 13.7224 10.842V2.68118L1.09058 15.3129C0.965801 15.4377 0.802354 15.5 0.638848 15.5C0.475342 15.5 0.311895 15.4377 0.187119 15.3129C-0.062373 15.0634 -0.062373 14.6589 0.187119 14.4095L12.8189 1.77764H4.658C4.3052 1.77764 4.01918 1.49161 4.01918 1.13882C4.01918 0.786025 4.3052 0.5 4.658 0.5H14.3612C14.714 0.499971 15 0.786025 15 1.13882Z" fill="#8A8987"/>
</g>
<defs>
<clipPath id="clip0_766_625">
<rect width="15" height="15" fill="white" transform="translate(0 0.5)"/>
</clipPath>
</defs>
</svg>
