<svg width="40" height="40" viewBox="0 0 40 40" fill="none" xmlns="http://www.w3.org/2000/svg">
<g id="interior-design 1" clip-path="url(#clip0_187_53)">
<g id="Group">
<g id="Group_2">
<path id="Vector" d="M0 0V40H29.0527V34.5263H25.2632V36.2105H3.78945V34.1053H5.89469H7.15781H9.47359C10.5184 34.1053 11.3684 33.2554 11.3684 32.2105V22.9473C11.3684 21.9026 10.5184 21.0526 9.47359 21.0526H7.15789H5.89477H3.78945V17.2631H7.15789V16.2958L11.1746 19.643L11.9833 18.6727L7.15789 14.6516V13.4737H3.78945V3.78945H5.05258V7.15789H6.7368V9.05266C6.7368 10.794 8.15336 12.2105 9.89469 12.2105C11.636 12.2105 13.0526 10.794 13.0526 9.05266V7.15789H14.7368V3.78945H16V13.4737H11.7895V17.2631H19.7895V3.78945H21.0526V9.26313V13.8947V23.1578H34.9473V13.8948V9.2632V3.78945H36.2105V25.2631H25.2631V30.6858L22.9219 33.0271L23.815 33.9202L26.9984 30.7368H29.0527V29.0526H40V0H0ZM7.15789 22.3158H9.47367C9.82195 22.3158 10.1052 22.5991 10.1052 22.9473C10.1052 23.2956 9.82195 23.5789 9.47367 23.5789H7.15789V22.3158ZM7.15789 24.8421H9.47367C9.69508 24.8421 9.90758 24.8035 10.1052 24.7334V30.4244C9.90758 30.3542 9.69508 30.3157 9.47367 30.3157H7.15789V24.8421ZM7.15789 31.579H9.47367C9.82195 31.579 10.1052 31.8623 10.1052 32.2105C10.1052 32.5588 9.82195 32.8421 9.47367 32.8421H7.15789V31.579ZM5.89477 22.3158V24.8421V30.3158V32.8421H3.78945V22.3158H5.89477ZM11.7895 9.05266C11.7895 10.0974 10.9395 10.9474 9.89469 10.9474C8.84992 10.9474 7.99992 10.0975 7.99992 9.05266V7.15789H11.7894L11.7895 9.05266ZM13.4737 5.89477H13.0526H6.73688H6.31586V3.78945H13.4738V5.89477H13.4737ZM33.6842 21.8948H22.3158V13.8948H33.6842V21.8948ZM33.6842 12.6316H22.3158V10.5263H33.6842V12.6316ZM33.6842 9.26313H22.3158V3.78945H33.6842V9.26313ZM38.7369 27.7895H27.7895V29.4737H26.5263V26.5263H37.4737V2.52633H34.9473H21.0527H18.5263V16H13.0527V14.7369H17.2632V2.52633H14.7369H5.05266H2.52633V14.7369H5.89477V16H2.52633V21.0527V34.1053V37.4738H26.5263V35.7895H27.7895V38.7369H1.26312V1.26312H38.7368V27.7895H38.7369Z" fill="#C5AF94"/>
</g>
</g>
<g id="Group_3">
<g id="Group_4">
<path id="Vector_2" d="M30.9474 4.21054H25.0527C24.4722 4.21054 24 4.68273 24 5.2632V7.78953C24 8.36999 24.4722 8.84218 25.0527 8.84218H30.9474C31.5279 8.84218 32.0001 8.36999 32.0001 7.78953V5.26312C32.0001 4.68265 31.5279 4.21054 30.9474 4.21054ZM30.737 7.57898H25.2633V5.47367H30.737V7.57898Z" fill="#C5AF94"/>
</g>
</g>
<g id="Group_5">
<g id="Group_6">
<path id="Vector_3" d="M17.0525 23.9234C14.3403 23.9234 12.1338 26.1299 12.1338 28.8421C12.1338 31.5543 14.3403 33.7608 17.0525 33.7608C19.7646 33.7608 21.9711 31.5543 21.9711 28.8421C21.9711 26.1299 19.7646 23.9234 17.0525 23.9234ZM17.0525 32.4976C15.0368 32.4976 13.397 30.8577 13.397 28.8421C13.397 26.8265 15.0368 25.1866 17.0525 25.1866C19.0681 25.1866 20.7079 26.8265 20.7079 28.8421C20.7079 30.8577 19.0681 32.4976 17.0525 32.4976Z" fill="#C5AF94"/>
</g>
</g>
<g id="Group_7">
<g id="Group_8">
<path id="Vector_4" d="M33.0522 32.8421H31.7891V34.1052H33.0522V32.8421Z" fill="#C5AF94"/>
</g>
</g>
<g id="Group_9">
<g id="Group_10">
<path id="Vector_5" d="M38.1059 32.8421H36.8428V34.1052H38.1059V32.8421Z" fill="#C5AF94"/>
</g>
</g>
<g id="Group_11">
<g id="Group_12">
<path id="Vector_6" d="M35.5795 32.8421H34.3164V34.1052H35.5795V32.8421Z" fill="#C5AF94"/>
</g>
</g>
</g>
<defs>
<clipPath id="clip0_187_53">
<rect width="40" height="40" fill="white"/>
</clipPath>
</defs>
</svg>
