<svg width="76" height="75" viewBox="0 0 76 75" fill="none" xmlns="http://www.w3.org/2000/svg">
<g id="interior-plan 1" clip-path="url(#clip0_594_774)">
<g id="Group">
<g id="Group_2">
<path id="Vector" d="M5.12334 2.20151V0H0.5V75H5.12334V72.7985H2.70151V38.6008H5.12334V36.3992H2.70151V2.20151H5.12334Z" fill="#8A8987"/>
</g>
</g>
<g id="Group_3">
<g id="Group_4">
<path id="Vector_2" d="M70.876 0V2.20151H73.2978V36.3992H70.876V38.6008H73.2978V72.7985H70.876V75H75.4993V0H70.876Z" fill="#8A8987"/>
</g>
</g>
<g id="Group_5">
<g id="Group_6">
<path id="Vector_3" d="M8 2.5V15.3424H10.2015V4.70166H11.5225V45.9443H10.2015V17.6909H8V48.1459H24.2916V42.4218H13.724V23.4883H17.3933V27.6713C17.3933 29.2494 18.6773 30.5333 20.2553 30.5333H30.8229C32.4009 30.5333 33.6849 29.2494 33.6849 27.6713V23.4883H37.3542V28.2584H39.5557V25.8367H47.8483V23.6351H39.5557V21.2868H13.724V17.5593C18.633 17.0452 22.5453 13.133 23.0593 8.22417H31.4832V15.3426H33.6847V8.22417H36.1798V12.9943C36.1798 14.2488 37.2004 15.2692 38.4547 15.2692H47.848C49.1025 15.2692 50.1229 14.2486 50.1229 12.9943V8.22417H63.1855V15.416H55.6113L53.7922 17.235V25.9101H55.9937V18.1469L56.523 17.6176H63.1855V31.8545H47.4077C46.3961 31.8545 45.5731 32.6774 45.5731 33.689V42.4218H39.5555V34.1292H37.354V42.4218H33.8315V48.1459H37.354V61.0617H59.5898V58.8602H39.5558V48.1459H66.7085V58.8602H61.9384V61.0617H68.91V2.5H8ZM22.09 44.6234V45.9443H13.724V44.6234H22.09ZM19.595 23.4883H31.4835V27.6713C31.4835 28.0355 31.1872 28.3318 30.823 28.3318H20.2555C19.8913 28.3318 19.595 28.0355 19.595 27.6713V23.4883ZM57.1684 34.0558H58.4894V42.4218H57.1684V34.0558ZM47.7749 34.0558H54.9667V42.4218H47.7749V34.0558ZM63.186 45.9443H37.3542H36.0332V44.6234H63.186V45.9443ZM63.186 42.4218H60.6909V34.0558H63.186V42.4218ZM13.724 15.3432V8.22417H20.843C20.3511 11.9179 17.4178 14.851 13.724 15.3432ZM47.9217 12.9941C47.9217 13.0346 47.8889 13.0675 47.8483 13.0675H38.455C38.4144 13.0675 38.3816 13.0346 38.3816 12.9941V8.22417H47.9217V12.9941ZM63.186 6.02251H13.724V4.70151H63.186V6.02251ZM66.7085 45.9443H65.3875V4.70166H66.7085V45.9443Z" fill="#8A8987"/>
</g>
</g>
<g id="Group_7">
<g id="Group_8">
<path id="Vector_4" d="M13.3433 54.0117C10.1466 54.0117 7.5459 56.6125 7.5459 59.8091C7.5459 63.0059 10.1467 65.6065 13.3433 65.6065C16.54 65.6065 19.1407 63.0057 19.1407 59.8091C19.1409 56.6125 16.54 54.0117 13.3433 54.0117ZM13.3433 63.405C11.3606 63.405 9.74741 61.7921 9.74741 59.8091C9.74741 57.8263 11.3606 56.2132 13.3433 56.2132C15.326 56.2132 16.9392 57.8262 16.9392 59.8091C16.9392 61.7921 15.3261 63.405 13.3433 63.405Z" fill="#8A8987"/>
</g>
</g>
<g id="Group_9">
<g id="Group_10">
<path id="Vector_5" d="M28.6067 54.0117C25.41 54.0117 22.8093 56.6125 22.8093 59.8091C22.8093 63.0059 25.4102 65.6065 28.6067 65.6065C31.8033 65.6065 34.4041 63.0057 34.4041 59.8091C34.4041 56.6125 31.8033 54.0117 28.6067 54.0117ZM28.6067 63.405C26.6241 63.405 25.0108 61.7921 25.0108 59.8091C25.0108 57.8263 26.6241 56.2132 28.6067 56.2132C30.5894 56.2132 32.2026 57.8262 32.2026 59.8091C32.2026 61.7921 30.5894 63.405 28.6067 63.405Z" fill="#8A8987"/>
</g>
</g>
<g id="Group_11">
<g id="Group_12">
<path id="Vector_6" d="M63.8317 57.5343H61.4834V59.7358H63.8317V57.5343Z" fill="#8A8987"/>
</g>
</g>
<g id="Group_13">
<g id="Group_14">
<path id="Vector_7" d="M59.1349 57.5343H56.7866V59.7358H59.1349V57.5343Z" fill="#8A8987"/>
</g>
</g>
<g id="Group_15">
<g id="Group_16">
<path id="Vector_8" d="M54.4376 57.5343H52.0894V59.7358H54.4376V57.5343Z" fill="#8A8987"/>
</g>
</g>
<g id="Group_17">
<g id="Group_18">
<path id="Vector_9" d="M47.3921 69.276H28.6055V71.4775H47.3921V69.276Z" fill="#8A8987"/>
</g>
</g>
<g id="Group_19">
<g id="Group_20">
<path id="Vector_10" d="M55.6118 69.276H50.915V71.4775H55.6118V69.276Z" fill="#8A8987"/>
</g>
</g>
<g id="Group_21">
<g id="Group_22">
<path id="Vector_11" d="M25.0842 69.276H20.3875V71.4775H25.0842V69.276Z" fill="#8A8987"/>
</g>
</g>
</g>
<defs>
<clipPath id="clip0_594_774">
<rect width="75" height="75" fill="white" transform="translate(0.5)"/>
</clipPath>
</defs>
</svg>
